<svg id="Created_Links" xmlns="http://www.w3.org/2000/svg" viewBox="0 0 230.88 245.91"><defs><style>.cls-1{fill:#fff;}</style></defs><path d="M36.05,91a28.77,28.77,0,0,1,6.86-10.18c4-3.62,8.3-5.68,13.87-5.66,37.45.12,74.91.08,112.36.08q38.21,0,76.4,0c11.28,0,18.76,6.34,20.73,17.48a4.92,4.92,0,0,0,.67,1.28V220a3.09,3.09,0,0,0-.61.76c-4,10.57-9.68,14.51-21,14.52H188c-1.49,0-3,0-4.48.08a1.46,1.46,0,0,0-1.55,2c.66,3.08,1.24,6.18,2.09,9.2,1,3.51,2.37,4.52,6.11,4.62,4.15.11,8.31,0,12.46.07s6.13,2.29,6.61,6.33c.43,3.56-1.59,5.84-3.25,8.42H98c-1.54-2.44-3.29-4.62-2.93-8,.49-4.57,2.13-6.63,6.68-6.74,4-.1,8,0,12-.13s5.36-1.23,6.42-4.94a53.36,53.36,0,0,0,1.09-5.35c1-5.55,1-5.57-4.64-5.57-20.1,0-40.2-.06-60.29.06a18.52,18.52,0,0,1-13.16-4.77c-3.32-3-5.3-6.67-7.09-10.57ZM151,79.08h0c-31.13,0-62.27.24-93.4-.17C49,78.79,39.89,85.69,40,96.3c.37,38.29.14,76.59.15,114.88,0,2-.08,4,.08,6,.41,5.3,2.68,9.48,7.4,12.26a18,18,0,0,0,9.56,2.22q26,0,52,0c5.16,0,10.32.07,15.48.09,1.65,0,2.37.47,1.92,2.39-1,4-1.5,8.17-2.45,12.2-1.27,5.36-5,9.13-11,8.76-3.82-.23-7.66-.08-11.49,0a3.12,3.12,0,0,0-2.4,1.11c-1.54,3.22.12,5.72,3.63,5.78h1.5l95.39,0c1,0,2,0,3,0,2.45-.16,2.86-.88,2.89-4.06,0-2.11-.76-3-2.94-2.92-4,.12-8,.08-12,0-5.73-.1-9.3-2.92-10.65-8.55-.93-3.87-1.67-7.79-2.45-11.69-.59-2.94-.56-3,2.48-3.07q22.72-.13,45.44-.16c7.33,0,14.66.24,22,.1,9.19-.18,15.3-6.1,15.31-14.9q.11-60.18,0-120.37a23,23,0,0,0-.74-5.91c-2-7.4-8.64-11.45-16.17-11.42C214.25,79.14,182.61,79.08,151,79.08Z" transform="translate(-36.05 -20.04)"/><path class="cls-1" d="M266.94,186v0Z" transform="translate(-36.05 -20.04)"/><path d="M172.18,38.06c0,3.49.06,7,0,10.48-.08,4.18-2.35,6.32-6.48,6.35a47.58,47.58,0,0,0-4.92.29c-3.43.42-6.69.19-9.24-2.47-1.32-1.38-2.29-1.3-3.7,0-4.09,3.8-8.68,3.74-13.29,1.05a2.36,2.36,0,0,0-3,0,7.31,7.31,0,0,1-9.17-.41c-1.58-1.25-2.31-1.07-3.6.18a5.8,5.8,0,0,1-3,1.28,36.53,36.53,0,0,1-6.43.51c-2,0-4.44.13-5.75-.94-2.33-1.89-3.83-1.79-6.33-.33-4.52,2.62-9.37,1.64-13.23-2-.61-.57-1.16-1.19-1.77-1.76-1-.88-1.56-2.89-2.53.39-1.35,4.6-5.7,5.48-9.83,2.5A2,2,0,0,0,67.29,53c-9.42,4.64-17.08,2.31-22.44-6.71C41.47,40.58,42.47,31.62,47,26.77c3.22-3.48,6.59-6.49,11.8-6.55,4.32,0,7.88,1.34,10.51,4.68,2.79,3.53,6.15,4.45,10.67,4.65a49.1,49.1,0,0,0,10.64-.49,8.52,8.52,0,0,1,8.21,2.56c.83.94,1.72,1.49,2.87.29,3.91-4.1,8.7-3.76,13.37-2,2,.74,2.58.52,3.16-1.33,1.29-4.21,2.57-5.3,5.9-5.32s5.11,1.29,6.41,5a7.28,7.28,0,0,0,.59,1.85c.67,1,1.33,1.72,2.81.76,4.9-3.19,9.72-2.92,14.05,1.12,1.34,1.24,2.15,1.1,3.21-.16A7.73,7.73,0,0,1,157.35,29c2.17,0,2.7-1,2.88-3,.36-4.11,2.68-6,6.45-5.79,3.33.21,5.37,2.48,5.46,6.34s0,7.65,0,11.48ZM46.84,37.68C46.92,39,46.91,40,47,41a12.31,12.31,0,0,0,9.08,10.12A11.23,11.23,0,0,0,68.2,47.35c.79-.91,2.12-2.3.65-3.28-1-.67-2.72-.37-4.08-.22-.48,0-.81,1-1.3,1.44-2.71,2.39-5.68,2.43-8.54.14-3.65-2.92-4.37-10.43-1.35-14a6.74,6.74,0,0,1,9.36-1.17c.66.48,1.16,1.59,1.79,1.64a27,27,0,0,0,4.64-.36,11.81,11.81,0,0,0-1.14-3,11,11,0,0,0-9.52-4.45C52.71,24.17,46.11,30.17,46.84,37.68Zm121.57.17h-.06c0-3.81-.09-7.62,0-11.42.06-1.64-.23-2.46-2.07-2.45-1.65,0-2.47.55-2.4,2.28.06,1.49,0,3,0,4.48,0,3,0,3-3,2.4-5.62-1.22-9.62,1.31-10.75,6.78s1.75,10.37,6.87,11.47a5.5,5.5,0,0,0,2.9,0,8.58,8.58,0,0,1,6.09-.49c1.5.49,2.44-.33,2.39-2.14C168.35,45.14,168.41,41.49,168.41,37.85Zm-25.35,5.7.9.05c4.86.16,5.82-1.18,4.15-5.71a7.63,7.63,0,0,0-4.74-4.78A8.87,8.87,0,0,0,132.62,37c-2.3,4-1,10.28,2.8,13a8.87,8.87,0,0,0,11.75-1.2,1.93,1.93,0,0,0,.52-1.63,2,2,0,0,0-1.48-1.11,8.84,8.84,0,0,0-3.22.85c-1.45.7-2.89,1.06-4.21,0a13.54,13.54,0,0,1-2.06-2.53,24.68,24.68,0,0,1,2.76-.68C140.63,43.61,141.8,43.62,143.06,43.55Zm-26,0h.15c0-1.66.07-3.32,0-5-.18-3.33-1.38-4.68-4.55-5.67a10.56,10.56,0,0,0-7.29.45c-2.06.82-3.79,3.18-3,4,1.34,1.48,3,.76,4.57.29a14,14,0,0,1,4.23-.47c.45,0,.89.86,1.33,1.32-.48.43-.89,1.08-1.44,1.23-2.07.58-4.24.82-6.25,1.53a5.27,5.27,0,0,0-3.6,4.41,4.54,4.54,0,0,0,2.88,4.81,17.52,17.52,0,0,0,5.68.93c.76.06,1.54-.66,2.34-.75,1.54-.17,4.06.39,4.46-.32.8-1.42.45-3.48.56-5.28C117.13,44.57,117.1,44.07,117.1,43.57Zm-20.25,0c2.91.21,3.18-.05,3.07-2.89a7.86,7.86,0,0,0-7.41-7.9,8.86,8.86,0,0,0-8.92,5.07,11,11,0,0,0,2,11.16A8.58,8.58,0,0,0,96.16,50.5c1.37-.74,3.63-1.46,2.69-3.45-.82-1.75-2.7-1.25-4.32-.3a4.26,4.26,0,0,1-5.47-.66A3.6,3.6,0,0,1,88.27,44c0-.19,1-.69,1.61-.68C92.2,43.31,94.53,43.47,96.85,43.59Zm31.25,7.63c.27-.18,1.48-.57,1.91-1.37a1.66,1.66,0,0,0-1.35-2.57c-1.84-.25-1.87-1.58-1.89-2.92,0-1.66.07-3.32,0-5s.55-2.38,2.23-2.51c.64-.05,1.65-.76,1.71-1.26s-.6-1.95-1-2c-2.88-.19-2.93-2.13-2.83-4.19s-.89-2.55-2.73-2.52-2.14,1.14-2.07,2.61c.1,1.93,0,3.39-2.58,3.88-1.67.33-1.69,3-.12,3.17C122.47,37,122,39,122,40.91s-.08,3.65.09,5.45C122.43,49.68,124,51.07,128.1,51.22ZM71.8,42h-.08q0,3.47,0,6.93a1.86,1.86,0,0,0,2.07,2.15c1.78.06,2.33-.79,2.26-2.41s0-3,0-4.47c.1-4.65.4-5.21,4.83-6.8,1.5-.54,2.36-1,1.88-2.74s-1.82-1.9-3.14-1.45a6.7,6.7,0,0,1-4.61,0c-2.38-.78-3,0-3.18,2.78C71.72,38,71.8,40,71.8,42ZM55.42,36.84c.14,1.15.17,1.48.21,1.81.21,1.63.2,3.4,2.06,4.2,2,.86,3.52,0,4.78-1.53a5.63,5.63,0,0,1,4.25-2.21c.39,0,1.13-1,1-1.31a2.89,2.89,0,0,0-1.3-1.55c-1.38-.8-3-1.28-4.25-2.18-1.62-1.14-3.45-2-5-.78C56.11,34.17,55.79,36.05,55.42,36.84Z" transform="translate(-36.05 -20.04)"/><path d="M175.26,37.47c0-3.5-.09-7,0-10.48a6.25,6.25,0,0,1,12.5.09c.09,4.49.07,9,0,13.47,0,1.88.65,2.69,2.6,2.67s3-.47,2.69-2.5c-.59-4.17,1.21-8.31-.32-12.57-1-2.72,1.83-6.27,4.85-7.2a5.79,5.79,0,0,1,7.14,4c1.25,5.23,4.49,4.4,8.12,4.23a19.17,19.17,0,0,1,6.24,1c1.35.41,1.77.3,1.74-1.09,0-1,0-2,0-3a6.15,6.15,0,0,1,5.9-6.05c3.33,0,5.72,2.29,6,5.86a20.94,20.94,0,0,0,.16,3,1.6,1.6,0,0,0,1.29.87c2.61-.59,5.13-1.07,7.66.46.47.29,1.48-.26,2.22-.48,5.37-1.6,10.1-1.11,13.86,3.66,1.43,1.82,2.61,3.38,1.46,5.79a3.05,3.05,0,0,0,.08,2.2c2.44,5.87-.28,11.75-6.4,13.5a9.85,9.85,0,0,1-3.93.48,76.28,76.28,0,0,0-11.7-.72c-1.69,0-3.41-2.31-5.1-2.29s-3.41,2.38-5.1,2.36c-3.06,0-6.14.26-9.16,0-1.74-.12-3.37-2.4-5-2.41s-3.43,2.49-5,2.38c-4.42-.33-8.78.29-13.17.14s-9,.11-13.47,0a6.16,6.16,0,0,1-6.09-5.93C175.13,45.12,175.26,41.29,175.26,37.47Zm49.45.45h-.24c0,3.65.06,7.3,0,10.95,0,1.48.39,2.19,1.92,2.15s2.67-.19,2.54-2.15a8.08,8.08,0,0,1,.23-2.95,3.05,3.05,0,0,1,1.56-1.64c.34-.14,1.21.48,1.57,1,1,1.33,1.74,2.83,2.72,4.16s4.25,2.36,5.3,1.27c1.53-1.6-1.07-2.26-1.34-3.55-.1-.44-.61-.78-.87-1.2-4.23-6.87-4.89-5.18.53-10.5a6.59,6.59,0,0,0,.66-.74c.62-.83.7-1.45-.59-1.58a5.66,5.66,0,0,0-5,1.56c-.92,1-1.8,2-2.77,2.87a7.39,7.39,0,0,1-1.62.87,10.56,10.56,0,0,1-.19-1.47q0-5.24-.05-10.47c0-1.47-.23-2.58-2.13-2.57s-2.16,1.09-2.16,2.57C224.72,30.28,224.71,34.1,224.71,37.92Zm24.09-5.15c-.22,0-.72,0-1.21.09-3.48.41-5.39,1.89-5.77,4.47-.4,2.77.79,4.52,4.19,5.89,1.52.62,3.15,1,4.67,1.61.53.22,1.34,1.08,1.27,1.22-.37.65-.92,1.47-1.55,1.62a5.29,5.29,0,0,1-2.83-.24c-.74-.26-1.27-1.2-2-1.39-1.16-.3-3-.77-3.53-.2-1.4,1.39.1,2.75,1.08,3.72,2.32,2.28,7.65,2.7,10.74,1,2-1.12,3.26-2.68,3.13-5.19-.13-2.36-1.58-3.6-3.49-4.36-1.52-.6-3.23-.74-4.74-1.37-.74-.3-1.22-1.25-1.81-1.9.85-.3,1.76-1,2.55-.83,1.58.25,3.08,1,4.67,1.35a2,2,0,0,0,1.71-.68c.24-.41,0-1.29-.35-1.81C254.05,33.33,251.67,32.78,248.8,32.77ZM205,42.13h0c0,1.66-.1,3.32,0,5s-.92,4,2.23,3.9c2.86-.08,1.75-2.24,1.89-3.67.22-2.3.24-4.62.44-6.93a3.28,3.28,0,0,1,3.56-3.33c2.41,0,3.16,1.54,3.31,3.51.22,2.81.29,5.63.34,8.45,0,1.48.72,2,2.14,2s2.13-.54,2.11-2c0-3.15.1-6.31-.06-9.45-.25-5.09-3.16-7.31-8.27-6.67a29.25,29.25,0,0,1-5.21.15c-1.62-.09-2.54.33-2.51,2.12C205,37.48,205,39.81,205,42.13Zm-25.92-4.59h0c0,3.32-.06,6.64,0,10s.15,3.45,3.29,3.51c3.32.07,6.64,0,10,0,1.38,0,2.69,0,2.61-2s-1.5-1.87-2.8-1.91c-2-.07-4-.08-6-.09A1.88,1.88,0,0,1,184,44.87c0-1.33-.06-2.66-.06-4,0-4.48,0-9,.08-13.44.05-2.07-.71-3.12-2.87-3s-2.12,1.67-2.12,3.18Q179.06,32.56,179.06,37.54Zm22.25,4.53h.26c0-2.15-.07-4.3,0-6.45.07-1.54-.16-2.56-2-2.56s-2.72.5-2.68,2.54c.1,4.29.07,8.6-.05,12.89-.06,2,.74,2.58,2.62,2.57s2-1,1.91-2.55C201.21,46.37,201.31,44.21,201.31,42.07Zm.55-15.25c-.61-.59-1.45-1.89-2.63-2.36-1.34-.55-3.15,1.52-3,3.16.18,1.86,1.49,2.41,3.14,2.45S201.72,29.14,201.86,26.82Z" transform="translate(-36.05 -20.04)"/><path class="cls-1" d="M151,79.08c31.63,0,63.27.06,94.9,0,7.53,0,14.2,4,16.17,11.42a23,23,0,0,1,.74,5.91q0,60.18,0,120.37c0,8.8-6.12,14.72-15.31,14.9-7.32.14-14.65-.11-22-.1q-22.71,0-45.44.16c-3,0-3.07.13-2.48,3.07.78,3.9,1.52,7.82,2.45,11.69,1.35,5.63,4.92,8.45,10.65,8.55,4,.07,8,.11,12,0,2.18-.06,3,.81,2.94,2.92,0,3.18-.44,3.9-2.89,4.06-1,.07-2,0-3,0l-95.39,0h-1.5c-3.51-.06-5.17-2.56-3.63-5.78a3.12,3.12,0,0,1,2.4-1.11c3.83-.13,7.67-.28,11.49,0,6,.37,9.74-3.4,11-8.76,1-4,1.5-8.16,2.45-12.2.45-1.92-.27-2.38-1.92-2.39-5.16,0-10.32-.09-15.48-.09q-26,0-51.95,0a18,18,0,0,1-9.56-2.22c-4.72-2.78-7-7-7.4-12.26-.16-2-.08-4-.08-6,0-38.29.22-76.59-.15-114.88-.1-10.61,9-17.51,17.59-17.4,31.13.41,62.27.17,93.4.17Zm.54,125.31v.27h77.93c5.67,0,11.33,0,17,0,4.9,0,4.48.26,4.48-4.69q0-50.21,0-100.42c0-6.26.64-5.55-5.66-5.56q-61.2,0-122.4,0H56.43c-4.19,0-4.26,0-4.27,3.39q0,51.72,0,103.43c0,3.61.08,3.62,3.49,3.62ZM152,221.9q9.47,0,18.94,0c5.44,0,5.44,0,5.11-5.55,0-.33,0-.66,0-1,0-1.49-.84-2.05-2.2-2.08-1,0-2-.09-3-.09l-38.39,0q-1.24,0-2.49,0a1.9,1.9,0,0,0-2.12,2.16c0,1,0,2,0,3,.11,3.45.12,3.49,3.71,3.5C138.38,221.92,145.19,221.9,152,221.9Z" transform="translate(-36.05 -20.04)"/><path class="cls-1" d="M46.84,37.68c-.73-7.51,5.87-13.51,11.87-13.62a11,11,0,0,1,9.52,4.45,11.81,11.81,0,0,1,1.14,3,27,27,0,0,1-4.64.36c-.63-.05-1.13-1.16-1.79-1.64a6.74,6.74,0,0,0-9.36,1.17c-3,3.62-2.3,11.13,1.35,14.05,2.86,2.29,5.83,2.25,8.54-.14.49-.43.82-1.39,1.3-1.44,1.36-.15,3.09-.45,4.08.22,1.47,1,.14,2.37-.65,3.28a11.23,11.23,0,0,1-12.08,3.78A12.31,12.31,0,0,1,47,41C46.91,40,46.92,39,46.84,37.68Z" transform="translate(-36.05 -20.04)"/><path class="cls-1" d="M168.41,37.85c0,3.64-.06,7.29,0,10.94,0,1.81-.89,2.63-2.39,2.14a8.58,8.58,0,0,0-6.09.49,5.5,5.5,0,0,1-2.9,0c-5.12-1.1-8-6-6.87-11.47s5.13-8,10.75-6.78c2.94.64,2.95.64,3-2.4,0-1.49.06-3,0-4.48-.07-1.73.75-2.26,2.4-2.28,1.84,0,2.13.81,2.07,2.45-.13,3.8,0,7.61,0,11.42ZM154.89,42c-.09,3.3,1.63,5.29,4.54,5.27,2.54,0,4.42-2.09,4.49-4.95s-1.7-5.11-4.18-5.29C156.9,36.76,155,38.73,154.89,42Z" transform="translate(-36.05 -20.04)"/><path class="cls-1" d="M143.06,43.55c-1.26.07-2.43.06-3.58.21a24.68,24.68,0,0,0-2.76.68A13.54,13.54,0,0,0,138.78,47c1.32,1,2.76.65,4.21,0a8.84,8.84,0,0,1,3.22-.85,2,2,0,0,1,1.48,1.11,1.93,1.93,0,0,1-.52,1.63A8.87,8.87,0,0,1,135.42,50c-3.76-2.72-5.1-9-2.8-13a8.87,8.87,0,0,1,10.75-3.9,7.63,7.63,0,0,1,4.74,4.78c1.67,4.53.71,5.87-4.15,5.71Zm-4-3.53v-.08a8.09,8.09,0,0,0,2,0,11.4,11.4,0,0,0,2-.95c-.61-.64-1.25-1.81-1.85-1.79a13,13,0,0,0-4.07,1.08c-.26.1-.34.86-.37,1.32,0,.11.54.32.85.37A14.32,14.32,0,0,0,139.06,40Z" transform="translate(-36.05 -20.04)"/><path class="cls-1" d="M117.1,43.57c0,.5,0,1,0,1.5-.11,1.8.24,3.86-.56,5.28-.4.71-2.92.15-4.46.32-.8.09-1.58.81-2.34.75a17.52,17.52,0,0,1-5.68-.93,4.54,4.54,0,0,1-2.88-4.81,5.27,5.27,0,0,1,3.6-4.41c2-.71,4.18-1,6.25-1.53.55-.15,1-.8,1.44-1.23-.44-.46-.88-1.31-1.33-1.32a14,14,0,0,0-4.23.47c-1.62.47-3.23,1.19-4.57-.29-.74-.81,1-3.17,3-4a10.56,10.56,0,0,1,7.29-.45c3.17,1,4.37,2.34,4.55,5.67.09,1.65,0,3.31,0,5Zm-5.73-.14c-2.85.11-5.62,1.74-5.1,2.83a3.73,3.73,0,0,0,2.61,1.67,2.93,2.93,0,0,0,3.27-3.42C112.09,44,111.53,43.64,111.37,43.43Z" transform="translate(-36.05 -20.04)"/><path class="cls-1" d="M96.85,43.59c-2.32-.12-4.65-.28-7-.31-.56,0-1.63.49-1.61.68a3.6,3.6,0,0,0,.79,2.13,4.26,4.26,0,0,0,5.47.66c1.62-1,3.5-1.45,4.32.3.94,2-1.32,2.71-2.69,3.45A8.58,8.58,0,0,1,85.63,49a11,11,0,0,1-2-11.16,8.86,8.86,0,0,1,8.92-5.07,7.86,7.86,0,0,1,7.41,7.9C100,43.54,99.76,43.8,96.85,43.59ZM91.51,40h0A5.92,5.92,0,0,0,93,40a10.14,10.14,0,0,0,1.61-.74c-.41-.64-.68-1.48-1.26-1.85A2.92,2.92,0,0,0,91,37a14.35,14.35,0,0,0-2.9,2c1,.34,1.93.69,2.9,1A1.53,1.53,0,0,0,91.51,40Z" transform="translate(-36.05 -20.04)"/><path class="cls-1" d="M128.1,51.22c-4.12-.15-5.67-1.54-6-4.86-.17-1.8-.07-3.63-.09-5.45s.45-3.94-2.67-4.32c-1.57-.19-1.55-2.84.12-3.17,2.55-.49,2.68-2,2.58-3.88-.07-1.47.18-2.57,2.07-2.61s2.83.53,2.73,2.52,0,4,2.83,4.19c.42,0,1.09,1.34,1,2s-1.07,1.21-1.71,1.26c-1.68.13-2.32.86-2.23,2.51s0,3.31,0,5c0,1.34,0,2.67,1.89,2.92A1.66,1.66,0,0,1,130,49.85C129.58,50.65,128.37,51,128.1,51.22Z" transform="translate(-36.05 -20.04)"/><path class="cls-1" d="M71.8,42c0-2-.08-4,0-6,.13-2.8.8-3.56,3.18-2.78a6.7,6.7,0,0,0,4.61,0c1.32-.45,2.66-.29,3.14,1.45s-.38,2.2-1.88,2.74C76.44,39,76.14,39.53,76,44.18c0,1.49-.06,3,0,4.47s-.48,2.47-2.26,2.41a1.86,1.86,0,0,1-2.07-2.15q0-3.46,0-6.93Z" transform="translate(-36.05 -20.04)"/><path class="cls-1" d="M224.71,37.92c0-3.82,0-7.64,0-11.46,0-1.48.28-2.57,2.16-2.57S229,25,229,26.46q0,5.24.05,10.47a10.56,10.56,0,0,0,.19,1.47,7.39,7.39,0,0,0,1.62-.87c1-.9,1.85-1.91,2.77-2.87a5.66,5.66,0,0,1,5-1.56c1.29.13,1.21.75.59,1.58a6.59,6.59,0,0,1-.66.74c-5.42,5.32-4.76,3.63-.53,10.5.26.42.77.76.87,1.2.27,1.29,2.87,2,1.34,3.55-1.05,1.09-4.22.17-5.3-1.27s-1.74-2.83-2.72-4.16c-.36-.48-1.23-1.1-1.57-1a3.05,3.05,0,0,0-1.56,1.64,8.08,8.08,0,0,0-.23,2.95c.13,2-1.1,2.11-2.54,2.15s-2-.67-1.92-2.15c.1-3.65,0-7.3,0-10.95Z" transform="translate(-36.05 -20.04)"/><path class="cls-1" d="M248.8,32.77c2.87,0,5.25.56,6.72,3,.31.52.59,1.4.35,1.81a2,2,0,0,1-1.71.68c-1.59-.34-3.09-1.1-4.67-1.35-.79-.12-1.7.53-2.55.83.59.65,1.07,1.6,1.81,1.9,1.51.63,3.22.77,4.74,1.37,1.91.76,3.36,2,3.49,4.36.13,2.51-1.13,4.07-3.13,5.19-3.09,1.74-8.42,1.32-10.74-1-1-1-2.48-2.33-1.08-3.72.57-.57,2.37-.1,3.53.2.74.19,1.27,1.13,2,1.39a5.29,5.29,0,0,0,2.83.24c.63-.15,1.18-1,1.55-1.62.07-.14-.74-1-1.27-1.22-1.52-.61-3.15-1-4.67-1.61-3.4-1.37-4.59-3.12-4.19-5.89.38-2.58,2.29-4.06,5.77-4.47C248.08,32.8,248.58,32.78,248.8,32.77Z" transform="translate(-36.05 -20.04)"/><path class="cls-1" d="M205,42.13c0-2.32,0-4.65,0-7,0-1.79.89-2.21,2.51-2.12a29.25,29.25,0,0,0,5.21-.15c5.11-.64,8,1.58,8.27,6.67.16,3.14,0,6.3.06,9.45,0,1.48-.66,2-2.11,2s-2.11-.52-2.14-2c-.05-2.82-.12-5.64-.34-8.45-.15-2-.9-3.56-3.31-3.51a3.28,3.28,0,0,0-3.56,3.33c-.2,2.31-.22,4.63-.44,6.93-.14,1.43,1,3.59-1.89,3.67-3.15.08-2.1-2.31-2.23-3.9s0-3.31,0-5Z" transform="translate(-36.05 -20.04)"/><path class="cls-1" d="M179.06,37.54q0-5,0-10c0-1.51-.1-3.09,2.12-3.18s2.92,1,2.87,3c-.09,4.48-.07,9-.08,13.44,0,1.33.05,2.66.06,4A1.88,1.88,0,0,0,186.17,47c2,0,4,0,6,.09,1.3,0,2.72-.09,2.8,1.91s-1.23,2-2.61,2c-3.32,0-6.64.09-10,0-3.14-.06-3.2-.13-3.29-3.51s0-6.64,0-10Z" transform="translate(-36.05 -20.04)"/><path class="cls-1" d="M201.31,42.07c0,2.14-.1,4.3,0,6.44.09,1.52.06,2.54-1.91,2.55s-2.68-.6-2.62-2.57c.12-4.29.15-8.6.05-12.89,0-2,.9-2.54,2.68-2.54s2.12,1,2,2.56c-.1,2.15,0,4.3,0,6.45Z" transform="translate(-36.05 -20.04)"/><path class="cls-1" d="M201.86,26.82c-.14,2.32-.81,3.28-2.49,3.25s-3-.59-3.14-2.45c-.15-1.64,1.66-3.71,3-3.16C200.41,24.93,201.25,26.23,201.86,26.82Z" transform="translate(-36.05 -20.04)"/><path d="M151.52,204.39H55.6c-3.41,0-3.49,0-3.49-3.62q0-51.72,0-103.43c0-3.38.08-3.39,4.27-3.39h66.45q61.2,0,122.4,0c6.3,0,5.65-.7,5.66,5.56q0,50.2,0,100.42c0,4.95.42,4.7-4.48,4.69-5.66,0-11.32,0-17,0H151.52Zm-54-55.27h0c6,0,12,0,18,0,3.24,0,3.35-.13,3.37-3.4q.12-15.47.07-30.93c0-3.69-.19-3.86-4.07-3.87q-17.46-.06-34.92,0c-4.28,0-4.44.11-4.48,4.52-.09,10-.07,20,0,29.93,0,3.59.13,3.69,3.62,3.73C85.23,149.18,91.39,149.12,97.54,149.12ZM97.67,161v0c-6.32,0-12.64.06-19,0-2.37,0-3.3.94-3.29,3.23q.06,10.72,0,21.45c0,2.32,1,3.22,3.31,3.21q18.47-.12,36.92,0c2.37,0,3.23-1,3.22-3.29,0-7.15-.07-14.3,0-21.45,0-2.44-1-3.17-3.29-3.14C109.64,161.1,103.65,161,97.67,161Zm55.15,0v.1c-6.15,0-12.29,0-18.44,0-2,0-3.16.55-3.14,2.79.06,7.31,0,14.61.07,21.92,0,2,1,3.06,3.05,3,2.49,0,5,0,7.47,0,9.47,0,18.93.08,28.4,0,3.15,0,3.42-.28,3.46-3.44.1-7,.13-14,.05-20.92,0-3.09-.43-3.42-3.49-3.46C164.44,161,158.63,161,152.82,161Zm-.89-11.89v0c6.16,0,12.32-.06,18.48,0,2.31,0,3.35-.84,3.34-3.19q0-10.49.1-21c0-2.16-1-2.94-3.06-2.93-12.15,0-24.3,0-36.45,0-2.13,0-3,.86-3,3,0,7,0,14-.15,21-.07,2.52,1,3.15,3.24,3.12C140.28,149.06,146.11,149.11,151.93,149.11Zm55.54,39.77v0c6,0,12,0,18,0,2,0,3.05-.45,3-2.79-.14-7.15,0-14.3-.11-21.45,0-3.43-.18-3.57-3.77-3.58-11.31,0-22.62,0-33.93,0-.5,0-1,0-1.49,0a2.13,2.13,0,0,0-2.47,2.39c-.09,7.32-.29,14.64-.25,21.95,0,3.08.46,3.4,3.58,3.44C195.83,188.93,201.65,188.88,207.47,188.88Zm.3-66.82v0c-6,0-12-.06-17.93,0-3.11,0-3.41.34-3.46,3.48q-.13,10,0,19.93c0,3.41.16,3.51,3.8,3.53q17.19.1,34.37,0c3.58,0,3.65-.12,3.71-3.61.11-6.64.13-13.29.17-19.93,0-3.4,0-3.45-3.72-3.47C219.06,122,213.41,122.06,207.77,122.06Z" transform="translate(-36.05 -20.04)"/><path d="M152,221.9c-6.82,0-13.63,0-20.45,0-3.59,0-3.6,0-3.71-3.5,0-1,0-2,0-3a1.9,1.9,0,0,1,2.12-2.16q1.24,0,2.49,0l38.39,0c1,0,2,.07,3,.09,1.36,0,2.21.59,2.2,2.08,0,.33,0,.66,0,1,.33,5.57.33,5.56-5.11,5.55Q161.48,221.89,152,221.9Z" transform="translate(-36.05 -20.04)"/><path d="M154.89,42c.1-3.22,2-5.19,4.85-5,2.48.18,4.25,2.42,4.18,5.29s-1.95,4.93-4.49,4.95C156.52,47.24,154.8,45.25,154.89,42Z" transform="translate(-36.05 -20.04)"/><path d="M139.06,40a14.32,14.32,0,0,1-1.47-.08c-.31,0-.86-.26-.85-.37,0-.46.11-1.22.37-1.32a13,13,0,0,1,4.07-1.08c.6,0,1.24,1.15,1.85,1.79a11.4,11.4,0,0,1-2,.95,8.09,8.09,0,0,1-2,0Z" transform="translate(-36.05 -20.04)"/><path d="M111.37,43.43c.16.21.72.61.78,1.08a2.93,2.93,0,0,1-3.27,3.42,3.73,3.73,0,0,1-2.61-1.67C105.75,45.17,108.52,43.54,111.37,43.43Z" transform="translate(-36.05 -20.04)"/><path d="M91.51,40A1.53,1.53,0,0,1,91,40c-1-.33-1.94-.68-2.9-1A14.35,14.35,0,0,1,91,37a2.92,2.92,0,0,1,2.29.44c.58.37.85,1.21,1.26,1.85A10.14,10.14,0,0,1,93,40a5.92,5.92,0,0,1-1.46,0Z" transform="translate(-36.05 -20.04)"/><path class="cls-1" d="M97.54,149.12c-6.15,0-12.31.06-18.46,0-3.49,0-3.6-.14-3.62-3.73-.06-10-.08-20,0-29.93,0-4.41.2-4.5,4.48-4.52q17.46-.08,34.92,0c3.88,0,4.06.18,4.07,3.87q.06,15.46-.07,30.93c0,3.27-.13,3.36-3.37,3.4-6,.07-12,0-18,0Z" transform="translate(-36.05 -20.04)"/><path class="cls-1" d="M97.67,161c6,0,12,.06,18,0,2.28,0,3.33.7,3.29,3.14-.1,7.15-.08,14.3,0,21.45,0,2.28-.85,3.3-3.22,3.29q-18.47-.06-36.92,0c-2.34,0-3.33-.89-3.31-3.21q0-10.72,0-21.45c0-2.29.92-3.26,3.29-3.23,6.32.1,12.64,0,19,0Z" transform="translate(-36.05 -20.04)"/><path class="cls-1" d="M152.82,161c5.81,0,11.62,0,17.43,0,3.06,0,3.46.37,3.49,3.46.08,7,0,14-.05,20.92,0,3.16-.31,3.43-3.46,3.44-9.47.06-18.93,0-28.4,0-2.49,0-5,0-7.47,0-2.07,0-3.05-1-3.05-3,0-7.31,0-14.61-.07-21.92,0-2.24,1.18-2.81,3.14-2.79,6.15,0,12.29,0,18.44,0Z" transform="translate(-36.05 -20.04)"/><path class="cls-1" d="M151.93,149.11c-5.82,0-11.65-.05-17.47,0-2.26,0-3.31-.6-3.24-3.12.18-7,.17-14,.15-21,0-2.11.84-3,3-3,12.15,0,24.3,0,36.45,0,2,0,3.08.77,3.06,2.93q-.12,10.49-.1,21c0,2.35-1,3.23-3.34,3.19-6.16-.08-12.32,0-18.48,0Z" transform="translate(-36.05 -20.04)"/><path class="cls-1" d="M207.47,188.88c-5.82,0-11.64.05-17.46,0-3.12,0-3.56-.36-3.58-3.44,0-7.31.16-14.63.25-21.95a2.13,2.13,0,0,1,2.47-2.39c.49,0,1,0,1.49,0,11.31,0,22.62,0,33.93,0,3.59,0,3.73.15,3.77,3.58.07,7.15,0,14.3.11,21.45,0,2.34-1,2.81-3,2.79-6,0-12,0-18,0Z" transform="translate(-36.05 -20.04)"/><path class="cls-1" d="M207.77,122.06c5.64,0,11.29,0,16.93,0,3.71,0,3.74.07,3.72,3.47,0,6.64-.06,13.29-.17,19.93-.06,3.49-.13,3.6-3.71,3.61q-17.19.07-34.37,0c-3.64,0-3.76-.12-3.8-3.53q-.12-10,0-19.93c.05-3.14.35-3.43,3.46-3.48,6-.08,11.95,0,17.93,0Z" transform="translate(-36.05 -20.04)"/></svg>