<svg id="FB" xmlns="http://www.w3.org/2000/svg" viewBox="0 0 480 480"><defs><style>.cls-1{fill:#fff;}</style></defs><g id="_logo_" data-name="&lt;logo&gt;"><path class="cls-1" d="M402.42,75.87c-4.43-.39-8.87-.78-13.3-1.06-7.17-.45-14.34-1-21.51-1.17-8.44-.22-16.89-.45-25.31-.1a98.23,98.23,0,0,0-36.93,8.51c-20.62,9.4-34.58,25-42.39,46.13a103.58,103.58,0,0,0-6.25,31.08c-.27,5.61-.37,11.24-.39,16.86,0,14,0,28.11,0,42.17v3.12l-9,.06h-52.6c-.56,2-.68,69.42-.15,72.33,5.06.19,10.19.06,15.31.09s10.16,0,15.24,0H255.7l.32.29c.05.06.13.11.14.18a7.55,7.55,0,0,1,.15,1.15q0,82.55,0,165.09a5.55,5.55,0,0,1,.12,1.18v15.42h75.28v-9.46h-.28c-.39-38.31-.34-171.93.2-173.85h61.55c3.12-24.15,6.21-48.08,9.34-72.39l-18.08,0H331.32c-.07-1-.16-1.78-.16-2.54,0-14.68-.09-29.36,0-44a74.87,74.87,0,0,1,1.22-12.32c1.93-10.86,8.59-17.43,19.2-19.91A54.21,54.21,0,0,1,363,141.2c12.89-.19,25.79-.1,38.68-.12,3.39,0,3.4,0,3.4-3.32V76.47A20.75,20.75,0,0,0,402.42,75.87Z"/><path d="M0,0V480H480V0ZM405,137.76c0,3.31,0,3.31-3.4,3.32-12.89,0-25.79-.07-38.68.12a54.21,54.21,0,0,0-11.33,1.47c-10.61,2.48-17.27,9.05-19.2,19.91a74.87,74.87,0,0,0-1.22,12.32c-.14,14.68-.06,29.36,0,44,0,.76.09,1.52.16,2.54h53.09l18.08,0c-3.13,24.31-6.22,48.24-9.34,72.39H331.6c-.52,1.89-.59,130.83-.21,171.72H256.28q0-85,0-170.1a7.55,7.55,0,0,0-.15-1.15c0-.07-.09-.12-.14-.18l-.32-.29H225.16c-5.08,0-10.16,0-15.24,0s-10.25.1-15.31-.09c-.53-2.91-.41-70.34.15-72.33h52.6l9-.06v-3.12c0-14.06,0-28.12,0-42.17,0-5.62.12-11.25.39-16.86A103.58,103.58,0,0,1,263,128.18c7.81-21.15,21.77-36.73,42.39-46.13a98.23,98.23,0,0,1,36.93-8.51c8.42-.35,16.87-.12,25.31.1,7.17.2,14.34.72,21.51,1.17,4.43.28,8.87.67,13.3,1.06a20.75,20.75,0,0,1,2.62.6Z"/></g></svg>