<svg id="Happy_Users" xmlns="http://www.w3.org/2000/svg" viewBox="0 0 287.54 306.14"><defs><style>.cls-1{fill:#fff;}</style></defs><path d="M101.9,310.57c-4.76-3.46-6-8-5.84-13.9.38-21,.25-42.1-.18-63.14-.06-3.23-1.82-7.46-4.25-9.46-35.15-29-61.27-64.27-76.34-107.46a8.11,8.11,0,0,0-1.39-1.87V103.58c1.56-2.36,3-4.81,4.7-7.08,11.34-15.34,27.8-13.12,38,4.37,9.22,15.79,18.45,31.73,29.4,46.31,13.33,17.73,30.73,31.07,52.32,37.75,26.5,8.21,49.55-.16,70.43-16.28,20.16-15.56,33.8-36.37,45.78-58.45A107.8,107.8,0,0,1,265,93.63c10.31-12.75,26.49-8.83,34.23,5.66.76,1.42,1.47,2.86,2.2,4.29V111c-4.21,10.65-7.9,21.55-12.73,31.91-14.66,31.46-36.83,57-63.66,78.7-3.93,3.17-5.59,6.56-5.55,11.56.21,21.69.13,43.37.14,65.06,0,9-2.42,11.42-11.33,11.44q-46.15.07-92.31.14a60.46,60.46,0,0,0-6.67.74Zm55.28-5.15v-.19c16.93,0,33.86-.15,50.78.09,5.27.08,7.23-1.43,7.15-7-.32-21.67,0-43.35-.32-65C214.7,227.1,217,223,221.52,219c11.86-10.82,24.1-21.43,34.58-33.53,18.68-21.57,32.26-46.27,39.59-74.09A16.87,16.87,0,0,0,288,92.75a16.08,16.08,0,0,0-19.33,2.88,42.15,42.15,0,0,0-6.82,10.19c-12.26,24.88-27.69,47.4-49.23,65.16-15.26,12.58-32.33,21.38-52.72,21.71-21.29.35-39.24-8.22-55.41-21.19-20.66-16.56-35.46-37.78-48-60.8-2.56-4.7-4.82-9.69-8.1-13.84-6.58-8.31-17.83-8.08-24.7,0-5.16,6.08-6,12.81-3.3,20.24,14.56,39.8,37.5,73.8,70.6,100.46,7.12,5.75,10.15,11.75,9.87,21-.63,20.42,0,40.87-.13,61.31,0,4.35,1.36,5.71,5.68,5.66C123.33,305.3,140.26,305.42,157.18,305.42Z" transform="translate(-13.9 -4.43)"/><path d="M196.1,4.43c1.16,3.31,2.2,6.68,3.57,9.9A3.27,3.27,0,0,0,202.3,16c5.46-.89,10.63-1.23,15,3.19.54.55,2.85.05,3.83-.66,5.22-3.82,10.57-4,16.25-1.27,1,.5,2.53,1.41,3.21,1,9.36-5.21,19.52-.67,29.2-2.34,2.46-.42,5.69,2.61,8.31,4.42,3.08,2.14,4.29,4.94,1.68,8.44-.29.39.19,1.46.45,2.17,2.78,7.41,1.79,10.82-4.43,15.21-4.82,3.41-12.53,3.66-16.69-.49-3.36-3.36-5-2.87-8,.23-1.37,1.41-5.3,2.32-6.64,1.39-3.87-2.66-6.68.1-10,.43a23.22,23.22,0,0,1-11.68-1.89c-2.66-1.26-3.89-2.3-6.65-.07-5.24,4.23-12.33,3.73-17.49-.84-2.21-2-3.43-2.47-6-.24-5.54,4.84-12.35,5.09-18.54,2-5.78-2.93-10.28-7.57-10.09-15.05.16-6.19-.06-12.38,0-18.57.07-5,2.79-7.71,7.71-7.63s7.61,2.92,7.79,7.72c.2,5.37-.14,10.75.06,16.11,0,1.27,1.35,2.5,2.07,3.75.8-1.23,2.2-2.42,2.3-3.7a70.51,70.51,0,0,0,.14-13c-.61-5.4,1.21-9.18,5.78-11.84Zm-1.23,18.79a90.68,90.68,0,0,0-.12-9.9c-.15-1.34-1.63-2.54-2.51-3.79-1.14,1.23-3.19,2.39-3.27,3.69-.38,5.76-.21,11.56-.21,17.34,0,5-3,7.14-7.44,7.16s-6.58-2.66-6.47-7.2c.14-5.58.3-11.17,0-16.72-.09-1.4-2.05-2.69-3.15-4-1,1.38-2.79,2.72-2.87,4.16-.32,5.76-.27,11.56-.06,17.34.28,7.84,5.29,12.5,13.15,12.56s12.68-4.58,13-12.57C195,28.59,194.87,25.9,194.87,23.22ZM232.74,33.8l.33.92c2.47-.94,7.11-2.12,7-2.77-.37-3.24-1.26-6.95-3.3-9.37-3.51-4.16-11.62-3-15.38,1.43-4.13,4.91-3.2,13,2,17.13,4.65,3.74,12,3.48,15.11-.65a3.11,3.11,0,0,0,.54-2.68,3.13,3.13,0,0,0-2.56-1.14c-1.15.1-2.24,1.27-3.34,1.25a26.41,26.41,0,0,1-6.22-1.07c-.52-.15-.75-1.32-1.12-2,1.9-.38,3.8-.77,5.71-1.11A5.08,5.08,0,0,1,232.74,33.8Zm34.71-13.62-1.13-1.29c-2.73,2.28-6.88,4.06-7.86,6.94-1.57,4.56,2.61,6.69,6.62,7.87a8.19,8.19,0,0,1,2.36.65c1.34.93,2.53,2.09,3.79,3.15-2,.25-4.11.92-6,.63-1.44-.22-2.59-1.91-4.05-2.52a3,3,0,0,0-2.76.56,3,3,0,0,0,0,2.73c2.49,4.24,6.57,5.56,11.11,4.85,4-.64,7.85-2.56,7.92-7.26s-3.59-6.52-7.76-7.26a3.15,3.15,0,0,1-1.19-.28c-1.18-.88-2.3-1.83-3.44-2.76,1.65-.19,3.3-.47,5-.53,2.13-.08,4.26,0,6.4.05a54.93,54.93,0,0,0-5.31-5.05C270.21,20,268.68,20.31,267.45,20.18Zm-59.35-.36c-4.5.51-8.78,1.23-9.53,6.38s3.12,6.62,7,7.91a32.66,32.66,0,0,1,4.09,1.2c.79.38,1.3,1.35,1.93,2-.84.53-1.85,1.65-2.5,1.47-2.28-.62-4.39-1.86-6.67-2.52-1.21-.35-2.63,0-4,0,.31,1.25.27,2.77,1,3.7,3.38,4.31,10.34,5,15.09,1.62,4.53-3.19,4-9-1.08-11.17-2.05-.89-4.39-1.12-6.46-2-.87-.36-1.39-1.58-2.06-2.41a14.51,14.51,0,0,1,3.21-1.05c.72-.06,1.49.82,2.26.86,2.2.1,4.4,0,6.61-.05-1.46-1.63-2.72-3.53-4.45-4.79C211.32,20.2,209.45,20.18,208.1,19.82Zm38.36,1.4-.69-1.17c-.79.9-2.21,1.78-2.25,2.71-.24,6-.28,11.93-.08,17.89,0,.76,1.84,2,2.83,2a4.07,4.07,0,0,0,2.88-2.07c.5-1,.15-2.41.17-3.64.08-4.82-1.24-10.33,6.16-11.3.65-.09,1.38-2.26,1.38-3.46,0-.58-1.61-1.64-2.49-1.64C251.73,20.56,249.09,21,246.46,21.22Z" transform="translate(-13.9 -4.43)"/><path d="M132.91,46.6a53.75,53.75,0,0,0-7.07,1.92,5.58,5.58,0,0,0-2.8,2.92c-1.48,4.1-3.82,6.93-8.53,6.12-4.15-.71-6.44-3.35-6.21-7.76.16-3.09-.06-4.47-3.88-2.6-3.16,1.55-6.64,1.31-7.56,6.28-.34,1.83-5.34,4.16-7.91,3.83S83,53.75,82.66,51.37c-.64-4-2.63-3.72-5.4-3.89-4.55-.27-9.08-1-13.63-1.33-1-.08-2.1.58-3.14.92-6.1,2-10.41-1.1-11-7.57-.15-1.83-.67-4.9-1.66-5.19-5.34-1.55-3.44,2.89-4.35,5.46-1,2.79-2.75,6.58-5,7.3S32.65,45.7,30,44.2c-1-.54-1.21-2.91-1.23-4.45-.09-8.67,0-17.34,0-26C28.76,8.87,31,5.67,36,5.56s7.15,3,7.86,7.73c.26,1.79,1.44,4.64,2.63,4.87,4.1.82,3.08-2.73,3.16-5,.17-5,2.82-7.75,7.55-7.92,5-.18,7.56,3,7.44,7.82-.09,3.42.23,5,4.11,3a7.43,7.43,0,0,1,5.44-.49c8.26,3.22,16.36-.09,24.52-.18a4.29,4.29,0,0,1,1.84.09c8,4.29,16.08-.34,24.11,0,5,.23,10.64-1.25,14.84.63,5.52,2.46,9.41,2.6,15,.08,4.7-2.11,9,3.63,7.27,8.64-2.65,7.57-4.87,15.39-8.5,22.48-2.05,4-6,8.24-10.06,9.7-6.21,2.23-9.43-1.74-10.33-10.55l1.23-1.25L135.32,44l1.26-1.21,1.19-.56-.35-.41c-.26.34-.53.67-.8,1s-.81.83-1.22,1.25l-1.24,1.24Zm-73-20h0c0-3.92.25-7.86-.11-11.74-.17-1.78-1.51-3.46-2.32-5.19-1.15,1.74-3.14,3.41-3.29,5.23-.67,8.33-.48,8.35-8.75,8.22a20.39,20.39,0,0,0-2.47,0c-3.31.38-4.51-1.08-4-4.29a7.91,7.91,0,0,0,0-3.68A39.32,39.32,0,0,0,36.35,10c-1,1.62-2.73,3.21-2.79,4.86-.3,7.82-.28,15.66,0,23.49,0,1.51,1.37,4,2.49,4.28,3.81.79,2.78-2.46,2.86-4.48.32-8.93.32-8.47,8.06-9.09,6.14-.49,8.23,1.56,7.18,7.41a3.83,3.83,0,0,0,.08,2.43,37.68,37.68,0,0,0,3.15,3.91c.86-1.27,2.35-2.49,2.46-3.82C60.13,34.85,59.93,30.72,59.93,26.6ZM110.16,32c.1-6.23-3.82-11.39-9.39-11.72A87.59,87.59,0,0,0,89,20.66a2.6,2.6,0,0,0-1.82,1.76c-.13,9.45-.17,18.9,0,28.35,0,.77,1.84,2.09,2.82,2.09a3.78,3.78,0,0,0,2.91-2.07c.47-1.95,0-4.12.32-6.11.15-.82,1.73-2.15,2.35-2C103.69,44.66,110,40.08,110.16,32Zm2.91,4.12h0c0,4.74-.13,9.49.12,14.22a3.5,3.5,0,0,0,2.46,2.4c.84,0,2.13-1.38,2.47-2.4a10.13,10.13,0,0,0,.12-4.29c-.48-3.88.83-4.66,4.31-3a7.35,7.35,0,0,0,10.12-3.29c1.83-3.74,2.91-8.8,1.9-12.64-.75-2.83-5.08-5.6-8.37-6.64s-7.42-.16-11.13.28c-.76.09-1.83,1.91-1.88,3C112.93,27.84,113.07,32,113.07,36.09ZM83.31,34.24C83.25,22.56,79.78,18.44,71,20.56c-2.49.61-4.45,3.44-6.65,5.25,2.37-.16,4.74-.3,7.1-.49.39,0,.86-.51,1.13-.4,1.41.6,2.77,1.32,4.14,2A16.41,16.41,0,0,1,73.57,29c-1.92.69-4.52.45-5.8,1.68-2,1.89-4.47,4.89-4.16,7.05s3.52,5.22,5.87,5.63c4,.71,8.27-.26,12.4-.75.55-.06,1.27-1.41,1.35-2.22C83.42,38.37,83.29,36.3,83.31,34.24Zm59.22,20.28c2.5-3.17,5.1-5.41,6.3-8.24,3-7,5.36-14.24,7.8-21.44.41-1.22-.07-2.73-.14-4.11-1.65.76-4.06,1.09-4.8,2.37-1.61,2.81-2.35,6.11-3.49,9.2a11.09,11.09,0,0,1-.92,1.59,6.71,6.71,0,0,1-1.38-1.68c-1.16-3.07-1.77-6.46-3.46-9.18-.86-1.4-3.59-1.63-5.47-2.4-.05,1.5-.54,3.15-.08,4.47,2,5.62,4.52,11,6.17,16.74.45,1.56-1.37,3.89-2.39,5.73A20.06,20.06,0,0,1,138,50.68Z" transform="translate(-13.9 -4.43)"/><path d="M158.56,72.52c25.2-1.07,53.77,24.11,52.28,55.12-1.28,26.65-26,49.76-54.86,49.52-23.07-.2-51.87-21.65-51.18-53.92C105.34,98.36,129.87,71,158.56,72.52Zm-.29,4.56c-26-.34-48.64,21.31-48.76,46.74-.13,26.55,21.38,48.7,47.4,48.82,26.49.11,48.79-20.58,49.14-45.61C206.45,99,185.84,77.45,158.27,77.08Z" transform="translate(-13.9 -4.43)"/><path class="cls-1" d="M157.18,305.42c-16.92,0-33.85-.12-50.78.09-4.32.05-5.71-1.31-5.68-5.66.13-20.44-.5-40.89.13-61.31.28-9.23-2.75-15.23-9.87-21-33.1-26.66-56-60.66-70.6-100.46-2.72-7.43-1.86-14.16,3.3-20.24,6.87-8.08,18.12-8.31,24.7,0,3.28,4.15,5.54,9.14,8.1,13.84,12.5,23,27.3,44.24,48,60.8,16.17,13,34.12,21.54,55.41,21.19,20.39-.33,37.46-9.13,52.72-21.71,21.54-17.76,37-40.28,49.23-65.16a42.15,42.15,0,0,1,6.82-10.19A16.08,16.08,0,0,1,288,92.75a16.87,16.87,0,0,1,7.74,18.58c-7.33,27.82-20.91,52.52-39.59,74.09-10.48,12.1-22.72,22.71-34.58,33.53-4.48,4.08-6.82,8.15-6.73,14.34.31,21.67,0,43.35.32,65,.08,5.58-1.88,7.09-7.15,7-16.92-.24-33.85-.09-50.78-.09Z" transform="translate(-13.9 -4.43)"/><path class="cls-1" d="M194.87,23.22c0,2.68.08,5.37,0,8.05-.29,8-5.11,12.63-13,12.57S169,39.12,168.73,31.28c-.21-5.78-.26-11.58.06-17.34.08-1.44,1.87-2.78,2.87-4.16,1.1,1.33,3.06,2.62,3.15,4,.34,5.55.18,11.14,0,16.72-.11,4.54,1.92,7.23,6.47,7.2s7.44-2.17,7.44-7.16c0-5.78-.17-11.58.21-17.34.08-1.3,2.13-2.46,3.27-3.69.88,1.25,2.36,2.45,2.51,3.79A90.68,90.68,0,0,1,194.87,23.22Z" transform="translate(-13.9 -4.43)"/><path class="cls-1" d="M232.74,33.8a5.08,5.08,0,0,0-1.22-.08c-1.91.34-3.81.73-5.71,1.11.37.7.6,1.87,1.12,2a26.41,26.41,0,0,0,6.22,1.07c1.1,0,2.19-1.15,3.34-1.25a3.13,3.13,0,0,1,2.56,1.14,3.11,3.11,0,0,1-.54,2.68c-3.14,4.13-10.46,4.39-15.11.65-5.18-4.18-6.11-12.22-2-17.13,3.76-4.47,11.87-5.59,15.38-1.43,2,2.42,2.93,6.13,3.3,9.37.08.65-4.56,1.83-7,2.77Zm-2.59-4,4-1.92c-1.44-.85-2.83-2.26-4.32-2.36-1.26-.1-2.64,1.32-4,2.07Z" transform="translate(-13.9 -4.43)"/><path class="cls-1" d="M267.45,20.18c1.23.13,2.76-.15,3.61.48a54.93,54.93,0,0,1,5.31,5.05c-2.14,0-4.27-.13-6.4-.05-1.66.06-3.31.34-5,.53,1.14.93,2.26,1.88,3.44,2.76a3.15,3.15,0,0,0,1.19.28c4.17.74,7.83,2.51,7.76,7.26s-3.89,6.62-7.92,7.26c-4.54.71-8.62-.61-11.11-4.85a3,3,0,0,1,0-2.73,3,3,0,0,1,2.76-.56c1.46.61,2.61,2.3,4.05,2.52,1.93.29,4-.38,6-.63-1.26-1.06-2.45-2.22-3.79-3.15a8.19,8.19,0,0,0-2.36-.65c-4-1.18-8.19-3.31-6.62-7.87,1-2.88,5.13-4.66,7.86-6.94Z" transform="translate(-13.9 -4.43)"/><path class="cls-1" d="M208.1,19.82c1.35.36,3.22.38,4.45,1.28,1.73,1.26,3,3.16,4.45,4.79-2.21,0-4.41.15-6.61.05-.77,0-1.54-.92-2.26-.86a14.51,14.51,0,0,0-3.21,1.05c.67.83,1.19,2.05,2.06,2.41,2.07.85,4.41,1.08,6.46,2,5.12,2.2,5.61,8,1.08,11.17-4.75,3.35-11.71,2.69-15.09-1.62-.72-.93-.68-2.45-1-3.7,1.33,0,2.75-.4,4,0,2.28.66,4.39,1.9,6.67,2.52.65.18,1.66-.94,2.5-1.47-.63-.7-1.14-1.67-1.93-2a32.66,32.66,0,0,0-4.09-1.2c-3.86-1.29-7.72-2.88-7-7.91S203.6,20.33,208.1,19.82Z" transform="translate(-13.9 -4.43)"/><path class="cls-1" d="M246.46,21.22c2.63-.25,5.27-.66,7.91-.65.88,0,2.49,1.06,2.49,1.64,0,1.2-.73,3.37-1.38,3.46-7.4,1-6.08,6.48-6.16,11.3,0,1.23.33,2.66-.17,3.64a4.07,4.07,0,0,1-2.88,2.07c-1,0-2.8-1.27-2.83-2-.2-6-.16-11.93.08-17.89,0-.93,1.46-1.81,2.25-2.71Z" transform="translate(-13.9 -4.43)"/><path class="cls-1" d="M59.93,26.6c0,4.12.2,8.25-.12,12.35-.11,1.33-1.6,2.55-2.46,3.82a37.68,37.68,0,0,1-3.15-3.91,3.83,3.83,0,0,1-.08-2.43c1.05-5.85-1-7.9-7.18-7.41-7.74.62-7.74.16-8.06,9.09-.08,2,.95,5.27-2.86,4.48-1.12-.23-2.44-2.77-2.49-4.28-.25-7.83-.27-15.67,0-23.49.06-1.65,1.82-3.24,2.79-4.86a39.32,39.32,0,0,1,2.72,5.17,7.91,7.91,0,0,1,0,3.68c-.5,3.21.7,4.67,4,4.29a20.39,20.39,0,0,1,2.47,0c8.27.13,8.08.11,8.75-8.22.15-1.82,2.14-3.49,3.29-5.23.81,1.73,2.15,3.41,2.32,5.19.36,3.88.11,7.82.11,11.74Z" transform="translate(-13.9 -4.43)"/><path class="cls-1" d="M110.16,32c-.13,8.11-6.47,12.69-14.57,10.71-.62-.15-2.2,1.18-2.35,2-.37,2,.15,4.16-.32,6.11A3.78,3.78,0,0,1,90,52.86c-1,0-2.8-1.32-2.82-2.09-.19-9.45-.15-18.9,0-28.35A2.6,2.6,0,0,1,89,20.66a87.59,87.59,0,0,1,11.78-.41C106.34,20.58,110.26,25.74,110.16,32ZM92,33c2,1.69,3.77,4.4,6,4.85,3.94.79,6-2.23,6-5.95,0-3.54-1.6-6.47-5.83-6.39C94.22,25.56,93,28.07,92,33Z" transform="translate(-13.9 -4.43)"/><path class="cls-1" d="M113.07,36.09c0-4.12-.14-8.25.09-12.36,0-1.07,1.12-2.89,1.88-3,3.71-.44,7.77-1.35,11.13-.28s7.62,3.81,8.37,6.64c1,3.84-.07,8.9-1.9,12.64A7.35,7.35,0,0,1,122.52,43c-3.48-1.68-4.79-.9-4.31,3a10.13,10.13,0,0,1-.12,4.29c-.34,1-1.63,2.42-2.47,2.4a3.5,3.5,0,0,1-2.46-2.4c-.25-4.73-.12-9.48-.12-14.22Zm19-4.5c-3.62-2.86-5.53-5.55-7.81-5.92-4.4-.72-6,2.7-5.93,6.58s2.54,6.49,6.3,5.62C126.83,37.36,128.57,34.63,132,31.59Z" transform="translate(-13.9 -4.43)"/><path class="cls-1" d="M83.3,34.24c0,2.06.12,4.13-.07,6.17-.08.81-.8,2.16-1.35,2.22-4.13.49-8.43,1.46-12.4.75C67.13,43,63.93,40,63.61,37.75s2.18-5.16,4.16-7c1.28-1.23,3.88-1,5.8-1.68a16.41,16.41,0,0,0,3.19-2.1c-1.37-.68-2.73-1.4-4.14-2-.27-.11-.74.37-1.13.4-2.36.19-4.73.33-7.1.49,2.2-1.81,4.16-4.64,6.65-5.25C79.78,18.44,83.25,22.56,83.3,34.24Zm-11,6,4.72-5.07c-.7-.64-1.67-1.94-2-1.79a48.56,48.56,0,0,0-5.39,2.93Z" transform="translate(-13.9 -4.43)"/><path class="cls-1" d="M142.53,54.52,138,50.68a20.06,20.06,0,0,0,2.68-3.11c1-1.84,2.84-4.17,2.39-5.73-1.65-5.69-4.2-11.12-6.17-16.74-.46-1.32,0-3,.08-4.47,1.88.77,4.61,1,5.47,2.4,1.69,2.72,2.3,6.11,3.46,9.18a6.71,6.71,0,0,0,1.38,1.68,11.09,11.09,0,0,0,.92-1.59c1.14-3.09,1.88-6.39,3.49-9.2.74-1.28,3.15-1.61,4.8-2.37.07,1.38.55,2.89.14,4.11-2.44,7.2-4.83,14.45-7.8,21.44C147.63,49.11,145,51.35,142.53,54.52Z" transform="translate(-13.9 -4.43)"/><path class="cls-1" d="M158.27,77.08c27.57.37,48.18,21.91,47.78,50-.35,25-22.65,45.72-49.14,45.61-26-.12-47.53-22.27-47.4-48.82C109.63,98.39,132.23,76.74,158.27,77.08Z" transform="translate(-13.9 -4.43)"/><path d="M230.15,29.75l-4.23-2.21c1.32-.75,2.7-2.17,4-2.07,1.49.1,2.88,1.51,4.32,2.36Z" transform="translate(-13.9 -4.43)"/><path d="M92,33c.94-4.91,2.21-7.42,6.17-7.49,4.23-.08,5.79,2.85,5.83,6.39,0,3.72-2,6.74-6,5.95C95.78,37.38,94,34.67,92,33Z" transform="translate(-13.9 -4.43)"/><path d="M132,31.59c-3.45,3-5.19,5.77-7.44,6.28-3.76.87-6.17-1.77-6.3-5.62s1.53-7.3,5.93-6.58C126.49,26,128.4,28.73,132,31.59Z" transform="translate(-13.9 -4.43)"/><path d="M72.33,40.28l-2.71-3.93A48.56,48.56,0,0,1,75,33.42c.37-.15,1.34,1.15,2,1.79Z" transform="translate(-13.9 -4.43)"/></svg>