<?xml version="1.0" encoding="utf-8"?>
<!-- Generator: Adobe Illustrator 24.1.1, SVG Export Plug-In . SVG Version: 6.00 Build 0)  -->
<svg version="1.1" id="people_x5F_thinking" xmlns="http://www.w3.org/2000/svg" xmlns:xlink="http://www.w3.org/1999/xlink"
	 x="0px" y="0px" viewBox="0 0 315 315" style="enable-background:new 0 0 315 315;" xml:space="preserve">
<style type="text/css">
	.st0{fill:#FFFFFF;}
</style>
<g id="_x3C_couple_x3E_">
	<g id="_x3C_marks_x5F_border_x3E_">
		<path d="M312.1,89.3c-0.4,0.6-0.9,2.8-2.4,3.7c-5.8,3.8-11.8,7.4-17.8,10.9c-0.9,0.6-2.2,0.5-3.4,0.7c-2.2,0.3-4.4-0.5-4.9-2.6
			c-0.5-1.9-0.5-4.7,0.6-6c5.1-6,11.8-10.3,18.9-13.5C308.1,80.4,312,83.3,312.1,89.3z M288.8,101.1c0.6-0.2,1.5-0.4,2.2-0.8
			c5.3-3.1,10.6-6.2,15.8-9.5c1.4-0.9,3-2.5,1.4-4c-0.8-0.8-3.3-0.9-4.3-0.2c-5.1,3.1-10,6.6-14.9,10c-0.7,0.5-1.3,1.1-1.7,1.8
			C286.3,99.8,286.7,100.9,288.8,101.1z"/>
		<path d="M34.4,144.6c5.6,0.6,8.2,2.7,7.2,6.9c-0.4,1.7-1.9,3.6-3.5,4.4c-6.7,3.6-14,5.3-21.5,5.5c-2.7,0.1-4.6-1.3-5.3-3.7
			s-0.7-5,1.8-6.8c0.8-0.6,1.6-1.3,2.5-1.6C21.9,147.8,28.1,146.2,34.4,144.6z M35,148.1c-6.1,1.7-12.2,3.2-18.2,5.1
			c-0.9,0.3-1.4,1.9-2.1,2.9c1,0.6,2.2,2,3,1.8c6.3-1.6,12.4-3.3,18.6-5.3c0.8-0.2,1.7-1.8,1.5-2.6C37.7,149.4,36.2,148.9,35,148.1z
			"/>
		<path d="M48.5,165.7c-0.3,0.7-0.5,2.5-1.6,3.6c-4.4,4.5-9,8.9-13.6,13.1c-0.9,0.8-2.4,1.1-3.6,1.3c-2.5,0.5-5.1-0.2-5.8-2.6
			c-0.6-2.1-0.7-5.6,0.5-6.9c4.6-4.9,9.7-9.6,15.1-13.7C43.4,157.5,48.4,160.2,48.5,165.7z M45,165.2c-0.2-2.1-2.1-2.9-3.8-1.4
			c-4.6,3.8-9,7.7-13.3,11.8c-0.8,0.7-0.5,2.6-0.7,3.9c1.3,0,3.2,0.5,3.9-0.2c4.4-3.9,8.7-8.1,12.9-12.2
			C44.6,166.5,44.8,165.6,45,165.2z"/>
		<path d="M289.2,75.4c-2.1,7.6-5.4,14.5-11.6,19.7c-1.2,1-3.9,0.9-5.6,0.5c-2-0.6-2.9-2.6-2.6-4.8c0.2-1.5,0.1-3.1,0.8-4.4
			c2.8-5.3,5.6-10.5,8.7-15.5c1.5-2.4,4.1-2.9,6.6-1.9C288.3,70,289.5,72.3,289.2,75.4z M285.8,74.5c-0.4-0.6-0.8-1.9-1.5-2
			c-0.9-0.2-2.5,0.3-2.9,1c-2.8,5.1-5.5,10.2-8.1,15.4c-0.4,0.8,0.1,2.1,0.2,3.2c1.1-0.4,2.8-0.4,3.3-1.2c3-4.9,5.8-10,8.6-15.1
			C285.6,75.6,285.6,75.2,285.8,74.5z"/>
		<path d="M298.1,108.7c3.5,0.3,7,0.3,10.4,1c4.2,0.8,5.6,3.1,5.2,7.1c-0.3,3.1-2.4,4.9-6.3,4.9c-5.3-0.1-10.6-0.5-15.9-0.9
			c-1.4-0.1-2.9-0.7-4.2-1.4c-2.3-1.4-2.6-3.8-2.2-6.1c0.5-2.4,2.1-3.8,4.5-4c2.8-0.2,5.6-0.1,8.5-0.1
			C298.1,109,298.1,108.8,298.1,108.7z M301.8,118.4c0-0.1,0-0.2,0-0.3c1.8,0,3.7,0.3,5.5-0.1c1.1-0.2,1.9-1.4,2.9-2.2
			c-0.8-0.9-1.6-2.5-2.4-2.6c-5.4-0.4-10.9-0.7-16.3-0.7c-1,0-1.9,1.3-2.9,2.1c1,0.8,1.8,2,2.9,2.3
			C294.9,117.6,298.3,118,301.8,118.4z"/>
	</g>
	<g id="_x3C_woman_x5F_skin_x3E_">
		<path class="st0" d="M180.8,163.9c0-3.3,0.1-6.6,0-10c-0.1-2.6,1-4.2,3.3-5.5c8.9-5.5,17.6-11.3,24.8-19.2
			c2.4-2.7,4.8-5.5,7.2-8.3c1.1-1.2,1.6-1.3,2.2,0.5c3.8,11.7,12,20.1,21.4,27.5c4.6,3.6,10.1,6.5,12.4,12.6
			c0.7,1.9,2.5,1.9,4.2,0.9c0.7-0.4,1.3-1,2-1.5c4.8-3.1,9-1.5,10.6,4.1c2.5,8.4-3.4,17.2-12.5,17.8c-3.6,0.2-5.1,1.5-6.6,4.6
			c-5.3,10.9-13.9,18.3-25.1,23c-13.9,5.8-25.4,0.9-34.1-8.7c-7.1-7.9-8.7-17.7-9.7-27.7C180.6,170.6,180.9,167.3,180.8,163.9
			C180.9,163.9,180.8,163.9,180.8,163.9z M242.1,153.3c-0.7-0.9-1-1.5-1.5-2c-4.1-4.2-14.8-6.4-20-3.9c-0.7,0.4-1.1,1.4-1.7,2.1
			c0.9,0.5,1.9,1.4,2.8,1.3c6.3-0.3,12.6-0.4,18.4,2.6C240.5,153.7,241.2,153.4,242.1,153.3z M209.3,195.6c4.7-0.8,8.8-2.1,12.9-3.2
			c0.4-0.1,0.5-1.3,0.8-2c-0.6-0.2-1.2-0.5-1.8-0.4c-1,0.2-1.9,0.8-2.8,0.9c-4.6,0.3-9.1,0.5-13.7,0.7c-0.6,0-1.3-0.4-1.9-0.4
			c-1.1,0.1-2.1,0.4-3.1,0.6c0.9,0.8,1.6,2.1,2.6,2.4C204.6,194.9,207.3,195.9,209.3,195.6z M231.7,164.7c0-3-1.7-5.5-3.8-5.6
			c-2.1,0-3.8,2.4-3.9,5.5c-0.1,3.2,1.4,5.5,3.7,5.4C230,170,231.7,167.7,231.7,164.7z M197.9,163.9c-0.1-3-1.9-5.6-4-5.4
			c-1.9,0.2-3.6,3.1-3.6,5.9s1.8,5.1,3.8,5.1C196.3,169.4,198,166.9,197.9,163.9z M208.3,182.4c0.3-0.4,0.6-0.8,0.9-1.3
			c-0.8-0.3-1.7-0.4-2.3-1c-3.9-3.3-3.9-3.6-2-8.3c0.8-1.8,1.6-3.6,2.2-5.5c0.3-0.8,0.1-1.8,0.1-2.8c-0.7,0.6-1.6,1-2,1.7
			c-1.3,2.3-2.5,4.7-3.6,7.1c-2.5,5.3-0.7,9,5.1,10.2C207.2,182.8,207.8,182.5,208.3,182.4z M195.9,150c0,0.2,0.1,0.3,0.1,0.5
			c1,0.1,2,0.5,2.9,0.3c1-0.3,1.8-1.1,2.6-1.6c-0.8-0.7-1.4-1.9-2.3-2.1c-5.1-1.2-9.9-0.1-14,3.3c-0.5,0.4-0.6,1.3-0.9,2
			c0.6,0,1.2,0,1.8-0.1C189.4,151.4,192.7,150.6,195.9,150z"/>
		<path class="st0" d="M220.7,274.1c-3.6-0.4-7.3-0.8-10.9-1.1c-2.3-0.2-3.5-1.4-3.9-3.8c-1.5-9.1-4.3-17.8-9.9-25.3
			c-1.3-1.8-0.8-2.6,1.1-3.1c1.8-0.5,3.4-1.3,5.2-1.8c6.2-1.8,10.2-5.5,10.5-12.3c0.1-1.6,0.4-2.8,2.4-3.1c8.2-1.2,15-5.3,21.3-10.3
			c1.9-1.5,2.8-1.4,3,1.2c0.3,3.1,0.6,6.3,1.2,9.4c1.6,8.4,6.5,13.6,15.1,15.1c2.6,0.4,5.1,1.4,7.6,2.1c-0.9,2.6-1.7,5.2-2.8,7.7
			C252.9,266.1,239.4,274.1,220.7,274.1z M249.7,249.7c-1.1-0.6-1.9-1.3-2.6-1.3c-4.3,0.3-8.6,0.6-12.9,1.2
			c-1.2,0.2-2.4,1.1-3.5,1.8c-0.3,0.2-0.5,0.9-0.4,1.3c0.1,0.3,0.8,0.6,1.1,0.6c5.6-0.8,11.1-1.6,16.7-2.5
			C248.6,250.7,248.9,250.3,249.7,249.7z M209.8,248.4c0,0.1,0,0.2-0.1,0.3c-1.6,0-3.3-0.1-4.9,0.1c-0.5,0-0.9,0.6-1.4,1
			c0.4,0.4,0.9,1,1.4,1.1c4.1,0.6,8.2,1.2,12.3,1.7c0.5,0.1,1.1-0.4,1.6-0.7c-0.4-0.6-0.6-1.7-1.1-1.8
			C215,249.3,212.4,248.9,209.8,248.4z"/>
		<path class="st0" d="M291.3,293c-1,0-2,0-3,0c-8.2-0.2-8.3-0.2-9.4-8.2c-1.4-11.4-2.5-22.8,0.7-34.1c1.7-5.8,2.6-6.2,7.7-2.7
			c3.9,2.7,6.8,6.4,8.6,10.8c4.2,10.1,5.5,20.8,6.4,31.6c0.2,2.1-0.7,2.7-2.5,2.7C297,293,294.1,293.1,291.3,293
			C291.3,293,291.3,293,291.3,293z"/>
	</g>
	<path id="_x3C_woman_x5F_dress_x3E_" d="M279,284.8c-1.3-10.1-2.3-20.2-0.2-30.2c2.4-4.9,5.6-7.5,3.1-8.1l-19.6-5.6
		c-0.6,0-2.3,10.3-2.4,9.5c-7.8,16.1-21.1,23.6-39.2,23.7c-3.3-0.3-11-1.2-14.2-1.5l0.8,10.7c0,0.1,0.1,1.2,0.1,1.3
		c0,0.1,0,1.7,0.1,1.8l0.3,9.5l74.6,1.5"/>
	<g id="_x3C_man_x5F_shirt_x3E_">
		<path class="st0" d="M79,292.9c-10.3,0-20.7,0-31,0c-4.3,0-4.3-0.1-4.3-4.5c0-1.7,0.1-3.3,0-5c-0.1-1.9,0.3-4.4-2.3-4.7
			c-0.5-0.1-1.7,2.8-2,4.4c-0.4,1.9-0.3,4-0.3,6c0,2.6-1,3.9-3.8,3.9c-10-0.1-20-0.1-30,0c-2.3,0-3.5-0.6-3.1-3.1
			c1.3-9.2,2-18.5,3.8-27.6c2.4-11.9,10.1-19.5,21.2-23.9c10.2-4.1,20.3-8.3,30.5-12.5c1.5-0.6,3-1.4,4.5-2.1c1.2-0.6,1.6-0.3,2.1,1
			c4.6,12,13,21.6,20.4,31.8c2,2.7,3.6,2.6,5.4-0.2c1.6-2.4,2.6-5.1,4.3-7.3c2.6-3.4,5.6-6.6,8.4-9.8c1.3-1.5,2.4-1.2,3.3,0.6
			c2.3,4.8,4.8,9.5,7.1,14.3c0.6,1.3,0.8,2.9,0.8,4.3c0.1,10,0.1,20,0.1,30c0,4.4-0.1,4.4-4.5,4.4C99.3,292.9,89.2,292.9,79,292.9
			C79,292.9,79,292.9,79,292.9z"/>
		<path class="st0" d="M146.8,292.9c-8,0-16-0.1-24,0c-2.9,0-4.2-0.7-4.1-3.9c0.2-11.2-0.5-22.4,0.3-33.5c0.4-5.4,3.5-10.6,5.5-15.8
			c0.8-2.1,2.1-1.1,2.9,0.1c2.8,3.9,5.4,8,8.2,11.9c1.2,1.7,2.7,4.3,4.2,4.4c2.8,0.3,3.2-3,3.9-5.1c2.3-7.3,4.4-14.6,6.3-22
			c0.9-3.5,0.8-3.7,4.1-2.2c9.4,4.2,18.7,8.6,28.2,12.7c8.2,3.6,13,10,16,18.2c3.8,10.5,4.6,21.4,5.5,32.4c0.2,2-0.7,2.7-2.6,2.7
			c-6.2,0-12.3,0-18.5,0c-1.9,0-2.7-0.9-2.7-2.8c0-2-0.1-4-0.2-6c-0.1-1.3,0.1-2.8-0.2-4c-0.4-1.3-1.4-2.3-2.1-3.5
			c-0.7,1.2-1.5,2.3-2,3.5c-0.3,0.7,0,1.6,0,2.5c0,1.8,0.1,3.7,0.1,5.5c0,4.7,0,4.7-4.7,4.7C162.8,292.9,154.8,292.9,146.8,292.9z"
			/>
		<path class="st0" d="M67.9,220.2c1.2-6.5,3.7-11.9,7.6-16.6c0.3-0.3,0.8-0.4,1.3-0.5c0.2,0.5,0.4,0.9,0.5,1.4c0.1,1,0.1,2,0.1,3
			c-0.3,3.1,0.7,5.6,2.9,7.6c5.9,5.3,11.9,10.6,18,15.8c3.3,2.8,3.2,2.4,0.2,5.7c-3.4,3.8-6.5,7.9-9.5,12.1c-1.3,1.8-2.1,3-3.8,0.5
			c-4.9-7.3-10-14.5-14.8-21.9C69.1,225.1,68.7,222.3,67.9,220.2z"/>
		<path class="st0" d="M146,224.8c-0.6,7.9-2.9,15.2-5.8,22.3c-0.6,1.5-1.2,1.2-2,0.1c-2.9-4.1-5.9-8-8.6-12.2
			c-0.6-0.8-0.4-2.4,0-3.5c0.4-1.2,1.4-2.3,2.2-3.3c3.5-4.5,5.5-9.4,4.7-15.3c-0.1-0.9,0.4-1.8,0.6-2.7c0.8,0.5,1.7,1,2.3,1.6
			C142.8,215.7,145.6,219.7,146,224.8z"/>
	</g>
	<g id="_x3C_hair_x5F_shine_x3E_">
		<path class="st0" d="M175,151.1c0.5,10.3,1.3,18.1,1.3,25.9c-0.1,15.5-0.7,30.9-1.1,46.4c0,0.7,0.1,1.4-0.2,2
			c-0.3,0.6-0.9,1.5-1.4,1.5c-0.7,0-1.7-0.6-2-1.2c-0.4-0.8-0.1-1.9-0.1-2.9c0.7-24.4,1.5-48.9,2.2-73.4c0.3-9.9,1.7-19.5,5-28.8
			c6.2-17.2,22.3-28.8,40.6-28.6c7.9,0.1,16,0.9,23.7,2.6c19.9,4.5,31.7,17.6,35.8,37.2c2,9.7,2.5,19.8,3.2,29.7
			c0.9,14.1,1.2,28.3,1.9,42.4c0.7,12.8,2.9,25.4,7.2,37.6c0.3,0.8,0.1,1.8,0.2,2.7c-0.8-0.3-1.8-0.3-2.3-0.8
			c-1.2-1.3-2.5-2.7-3-4.3c-3.6-10.1-5.4-20.6-6.2-31.2c-1-14.1-1.2-28.3-2.2-42.4c-0.9-11.3-1.5-22.7-4.1-33.6
			c-4.3-18.1-16.2-29.3-34.6-33.3c-0.6-0.1-1.3-0.3-2-0.3c-4.5,0-8.8-1.1-13.2-1.7c-14.1-2-31.4,2.5-40.7,18.4
			c-3.8,6.6-5.8,13.8-6.9,21.2C175.3,141.9,175.3,147.8,175,151.1z"/>
		<g>
			<path class="st0" d="M113.1,51.1c15,1.7,29.8,5.8,45.1,2.9c2.3-0.4,2.9,1.2,3.2,2.9c1.4,7.3,0.5,14.2-4.7,19.3
				c0.1,0.1-1.4,1.3-2.3,1.9c-0.4,0.1-0.9,0.6-1.6,1.1c-0.6,0.4-1.4,0.7-1.3,0.7c0.8,0.4,1.2,0.9,1.4,1.1c0.3,0.3,1.1,1.8,1.1,1.5
				c0-0.3,0-0.6,0.1-0.7c0.3-1,1.4-1.7,1.6-1.8c1.2-0.7,2.4-1.7,2.2-1.6c7.6-5.2,9-14,7.2-23.2c-1.2-5.7-1.6-5.9-7.2-5.1
				c-5.1,0.7-10.3,1.5-15.4,1.2c-6.8-0.5-13.5-1.7-20.2-3.1c-15.5-3.2-29.7-0.3-42.8,8.4c-2.9,1.9-5.3,4.5-7.7,7
				c-0.9,0.9-1,2.6-1.4,3.9c1-0.7,2.1-1.4,2.9-2.2C84.3,54.4,97.7,49.3,113.1,51.1z"/>
			<path class="st0" d="M47.3,90.8c0.4-9,3-13.1,10.9-16.1c1.9-0.7,2.3-1.6,2.3-3.6c0.1-3.3,0.7-6.6,1.5-9.7
				c0.4-1.5,1.7-2.8,2.7-4.1c0.4-0.4,1.2-0.5,1.8-0.8c0.1,0.6,0.4,1.3,0.2,1.8c-1.9,4.7-2.9,9.5-1.6,14.6c0.5,1.8-0.6,2.1-2.1,2.6
				c-8.7,2.6-11.2,6-10.9,15.2c0.3,11.3,3.8,21.8,7.5,32.3c0.4,1.1,1.2,2.2,1.1,3.3c-0.1,1-1.1,1.9-1.7,2.8
				c-0.6-0.6-1.5-1.2-1.8-1.9c-2.5-7.5-5.2-15.1-7.3-22.7C48.6,100,48.1,95.3,47.3,90.8z"/>
		</g>
	</g>
	<g id="_x3C_man_x5F_face_x3E_">
		<path class="st0" d="M151.4,79.9c1.1,0.4,1.7,1.4,2.3,2.2l0.3,0.4c0.1,1.4,0.5,1.5,0.7,2.7c2.2,6.3,4.2,12.7,5.8,19.2
			c1.1,4.4,0.8,4.3-3.5,3.6c-2.9-0.5-5.9-0.8-8.9-0.7c-3.2,0.2-4.5,2-4.3,4.9c0.2,2.7,1.3,3.5,4.8,3.6c1.5,0,3,0,4.5,0
			c0-0.1,0-0.1,0-0.2h0.5c8.7-0.3,9.4,0.7,8.4,7.9c-0.4,2.7,0.6,5.6,1,8.4c2,11.8,1,23.5-1.1,35.2c-0.1,0.5-0.4,1-0.7,1.5
			c-0.1-0.5-0.4-0.9-0.4-1.4c-1.1-6.4-7.1-12.1-13.6-12.4c-5.3-0.2-10.7,0.1-16,0.4c-5.6,0.3-9.9,3.7-13.9,7.2
			c-4.4,3.8-4.4,3.9-9.5,1.1c-9.7-5.3-16.1-13.2-19-23.9c-0.7-2.7-1.2-5.5-2-8.2c-1.9-6.8-1.2-13,2.5-19.1c2.9-4.8,1.6-10,0.5-15
			c-0.5-2.1-1.5-4.1-2.2-6.1c-0.5-1.3-0.8-2.7-1.3-4c1.5,0,3,0,4.4,0.1c18,1.3,35.9,0.8,53.4-4.5c1.5-0.5,3-1.1,4.5-1.7"/>
		<path class="st0" d="M125.3,209.4c-6.2-3.8-12.9-7-18.8-11.2c-13.4-9.8-21.3-23-22.4-39.9c-0.3-5.3-1-10.6-2.2-15.8
			c-0.8-3.6-2.4-7.3-4.4-10.4c-1.9-3.1-5.3-4.7-9.1-3.7c-4,1-5.9,4-6.6,7.9c-1.9,10.6,5.9,21.4,16.6,22.8c4.2,0.6,4.3,0.6,4.3,4.9
			c0.1,7.2,0,14.3,0,21.5c0,0,0,0,0,0c0,3.5,0,7,0,10.5c0,16.5-0.3,16.9,13.1,26.9c8.1,6,14.9,12.6,18,22.3c0.3,0.9,1.1,1.6,1.6,2.5
			c0.5-0.8,1.1-1.6,1.5-2.5c2.8-5.2,5.6-10.5,8.5-15.7c1-1.9,2.5-3.5,3.7-5.3c2.4-3.3,1.8-7.2,1.1-10.6
			C130.1,211.9,127.2,210.5,125.3,209.4z M75,148.8c-0.7-0.8-1.6-1.5-2-2.5c-0.4-1-0.2-2.3-0.5-3.4c-0.8-3.2-1.7-6.2-6-6
			c-0.5,0-0.9-0.6-1.4-0.9c0.4-0.5,0.8-1.2,1.3-1.3c2.9-0.9,5.5,0.1,6.9,2.5c1.6,2.6,2.4,5.7,3.5,8.6C76.1,147,75.6,147.9,75,148.8z
			"/>
		<path class="st0" d="M135.4,165.9c4.1-0.3,8.3-0.8,12.4-0.9c3.8-0.2,5.3,1.3,5,5c-0.2,2.3-0.7,4.6-1.4,6.8
			c-0.3,0.8-1.7,1.8-2.6,1.8c-0.7,0-1.6-1.5-1.8-2.4c-0.9-4.2-0.8-4.2-5.1-4.1c-1.7,0-3.3,0.1-5,0.1c-2,0-2.9,0.9-3.3,2.9
			c-1,4.2-3.3,5.4-7.1,4.1c-3.2-1.1-5.2-4.9-4.1-8c0.9-2.6,3.8-6,7.4-5.4c1.8,0.3,3.6,0.1,5.5,0.1
			C135.4,165.7,135.4,165.8,135.4,165.9z"/>
	</g>
	<g id="_x3C_marks_x5F_background_x3E_">
		<path class="st0" d="M288.8,101.1c-2.1-0.2-2.5-1.2-1.6-2.7c0.4-0.7,1-1.3,1.7-1.8c4.9-3.4,9.8-6.8,14.9-10
			c1.1-0.7,3.5-0.6,4.3,0.2c1.6,1.6,0,3.2-1.4,4c-5.2,3.3-10.5,6.3-15.8,9.5C290.3,100.7,289.4,100.9,288.8,101.1z"/>
		<path class="st0" d="M35,148.1c1.3,0.8,2.7,1.3,2.9,2c0.2,0.8-0.8,2.4-1.5,2.6c-6.1,1.9-12.3,3.7-18.6,5.3c-0.8,0.2-2-1.2-3-1.8
			c0.7-1,1.2-2.6,2.1-2.9C22.8,151.4,28.9,149.8,35,148.1z"/>
		<path class="st0" d="M45,165.2c-0.2,0.4-0.4,1.3-0.9,1.8c-4.2,4.1-8.5,8.3-12.9,12.2c-0.8,0.7-2.6,0.2-3.9,0.2
			c0.2-1.3-0.1-3.2,0.7-3.9c4.3-4.1,8.7-8,13.3-11.8C42.9,162.4,44.8,163.1,45,165.2z"/>
		<path class="st0" d="M285.8,74.5c-0.2,0.7-0.2,1.1-0.4,1.3c-2.8,5.1-5.6,10.2-8.6,15.1c-0.5,0.8-2.2,0.8-3.3,1.2
			c-0.1-1.1-0.6-2.4-0.2-3.2c2.5-5.2,5.2-10.3,8.1-15.4c0.4-0.7,2-1.1,2.9-1C285,72.6,285.4,73.9,285.8,74.5z"/>
		<path class="st0" d="M301.8,118.4c-3.5-0.5-6.9-0.8-10.3-1.5c-1.1-0.2-2-1.5-2.9-2.3c1-0.7,1.9-2.1,2.9-2.1
			c5.4,0,10.9,0.2,16.3,0.7c0.9,0.1,1.6,1.7,2.4,2.6c-1,0.8-1.8,2-2.9,2.2c-1.8,0.4-3.6,0.1-5.5,0.1
			C301.8,118.2,301.8,118.3,301.8,118.4z"/>
	</g>
	<g id="_x3C_outline_x3E_">
		<path d="M305.7,279.9c-1.1-8.8-2.3-17.5-6.8-25.5c-1.7-3-3.8-6-2.3-9.9c0.4-1-0.2-2.6-0.6-3.8c-5.4-14.1-7.1-28.9-8.2-43.8
			c-0.5-7.4-0.7-14.9-1-22.3c-0.4-8.8-0.4-17.6-1.1-26.3c-0.5-6.5-1.4-13.1-2.6-19.5c-2.3-12.2-9.3-21.7-18.7-29.5
			c-5.7-4.7-12.1-8.5-19.8-9.2c-4.4-0.4-8.9-0.4-13.3-1.1c-6-1-11.7-2.3-18-1.1c-6.4,1.2-12.3,2.8-18,6c-15,8.3-21.7,21.7-24.3,37.8
			c-0.5,3.1-0.7,6.2-1.1,9.3c0,0.4-0.3,0.9-0.5,1.3c-0.2-0.4-0.6-0.8-0.7-1.2c-0.9-5.8-2.3-11.6-2.5-17.5c-0.1-3.5,1.3-7.1-1.4-10.3
			c-0.1-0.2,0-0.6,0-1c1.6-8.7-1.2-16.8-4.2-24.8c-1-2.7-1.2-4.4,1.2-6.5c10.2-9,8.8-20.5,6.2-32c-0.6-2.5-2.4-4.3-5.5-3.9
			c-1.8,0.2-3.7,0-5.4,0.5c-8.3,2.3-16.5,1.3-24.9,0c-9.6-1.6-19.1-4-29.2-2.6C92.3,44.5,82.7,48.5,74,54.9
			c-1.1,0.8-1.3,1.1-2.5-0.3c-2.7-3.4-6.7-3.3-9.8-0.5c-3.7,3.3-5.7,7.3-5.5,12.2c0.1,2.5-0.9,3.6-2.9,5
			c-6.3,4.2-10.5,9.5-10.3,17.9c0.4,11.3,3,22,7.1,32.5c1.3,3.3,2.2,7.1,4.4,9.8c2.1,2.6,3,5,2.7,8.1c-0.9,9.6,4.8,15.8,11.6,21.1
			c1.7,1.3,4.2,1.8,6.4,2.1c2,0.3,3,0.6,3,2.8c-0.1,9.7,0,19.3-0.1,29c0,0.8-0.5,2.1-1.1,2.4c-7.7,4-10.5,11.3-12.9,18.9
			c-0.3,0.9-1.1,1.9-1.9,2.2c-12.8,5.4-25.7,10.6-38.4,16.2c-9,4-16.4,10.2-20.2,19.8c-1.2,3-2.4,5.9-3.6,8.8c0,11.3,0,22.6,0,34
			c2,0,4-0.1,6-0.1c62,0,123.9,0,185.9,0c5.2,0,10.3-0.6,15.5-0.9c0.1-0.1,0.1-0.1,0.1-0.2c-0.1-9.2-0.6-18-1.6-26.4
			c-1.5-9.1-4.3-17.8-9.9-25.3c-1.3-1.8-0.8-2.6,1.1-3.1c1.8-0.5,3.4-1.3,5.2-1.8c6.2-1.8,10.2-5.5,10.5-12.3
			c0.1-1.6,0.4-2.8,2.4-3.1c8.2-1.2,15-5.3,21.3-10.3c1.9-1.5,2.8-1.4,3,1.2c0.3,3.1,0.6,6.3,1.2,9.4c1.6,8.4,6.5,13.6,15.1,15.1
			l31.5,8.9c3.9,2.7,6.8,6.4,8.6,10.8c4.2,10.1,5.5,20.8,6.4,31.6c0.2,2.1-0.7,2.7-2.5,2.7c-2.8,0-5.7,0-8.5,0c0,0,0,0,0,0
			c-0.1,0-10.1-0.1-10.2-0.1c0.5,1.8,0.8,2.8,1.2,4.4l18.2,0.4c4,0.1,6.2-2.1,6.1-6C306.6,287.8,306.2,283.9,305.7,279.9z
			 M165.8,172.9c1-5.1,1.4-10.4,2.1-15.6c0.1-0.5,0.5-1,0.8-1.5c0.2,0.5,0.5,0.9,0.5,1.4c0,5.3,0,10.6,0,16h0.1
			c-0.4,12.4-0.7,24.8-1.1,37.2c-0.2,4.6-0.7,9.2-1,13.8c-0.2,3.2-0.3,3.3-3.6,1.9c-4.1-1.7-8.2-3.3-12.2-5c-0.7-0.3-1.1-1.3-1.6-2
			c-2.3-3.4-4.3-7-6.8-10.2c-1.6-2-3.3-4.3-6.5-3.8c-0.4,0.1-0.8-0.4-1.2-0.6c0.4-0.5,0.8-1.2,1.4-1.3c1.3-0.3,2.6-0.4,3.9-0.2
			c8.3,0.8,13.6-3.9,18.2-9.8C163.5,187.1,164.4,179.9,165.8,172.9z M136.6,212.9c-0.1-0.8,0.4-1.8,0.5-2.7c0.8,0.5,1.7,0.9,2.3,1.6
			c3.4,3.8,6.2,7.8,6.6,12.8c-0.6,7.9-2.9,15.2-5.8,22.3c-0.6,1.5-1.2,1.2-2,0.1c-2.9-4-5.9-8-8.6-12.2c-0.5-0.8-0.4-2.4,0-3.5
			c0.4-1.2,1.4-2.3,2.2-3.3C135.3,223.7,137.3,218.8,136.6,212.9z M126.5,179c-3.2-1.1-5.2-4.9-4.1-8c0.9-2.6,3.8-6,7.5-5.4
			c1.8,0.3,3.6,0,5.5,0c0,0.1,0,0.2,0,0.3c4.1-0.3,8.3-0.8,12.4-0.9c3.8-0.2,5.3,1.3,5,5c-0.2,2.3-0.7,4.6-1.4,6.8
			c-0.3,0.8-1.7,1.8-2.6,1.8c-0.7,0-1.6-1.5-1.8-2.4c-0.9-4.2-0.8-4.2-5.1-4.1c-1.7,0-3.3,0.1-5,0.1c-2,0-2.9,0.9-3.3,2.9
			C132.6,179.1,130.3,180.3,126.5,179z M71.8,63.8c2.4-2.5,4.8-5.1,7.7-7c13-8.8,27.3-11.6,42.8-8.4c6.7,1.4,13.4,2.6,20.2,3.1
			c5.1,0.3,10.3-0.5,15.3-1.2c5.7-0.8,6.1-0.6,7.2,5.1c2.1,10.3-0.3,18.8-9.4,24.8c-2.3,1.5-1.8,2.8-1,4.9
			c2.2,6.4,4.2,12.9,5.9,19.5c1.1,4.4,0.8,4.3-3.5,3.6c-2.9-0.5-6-0.8-8.9-0.7c-3.2,0.2-4.5,2-4.3,4.9c0.2,2.7,1.3,3.5,4.8,3.6
			c1.5,0,3,0,4.5,0v-0.2c0.2,0,0.3,0,0.5,0c8.7-0.3,9.4,0.7,8.4,7.9c-0.4,2.7,0.6,5.6,1,8.4c2,11.8,1,23.5-1.1,35.2
			c-0.1,0.5-0.5,1-0.7,1.5c-0.2-0.5-0.4-0.9-0.4-1.4c-1.1-6.4-7-12.1-13.6-12.4c-5.3-0.2-10.7,0.1-16,0.4c-5.6,0.3-9.9,3.7-13.9,7.2
			c-4.3,3.8-4.4,3.9-9.5,1.1c-9.7-5.3-16.1-13.2-19-23.9c-0.7-2.7-1.2-5.5-2-8.2c-1.9-6.8-1.2-13,2.5-19.1c2.9-4.8,1.6-10,0.5-15
			c-0.5-2.1-1.4-4-2.2-6.1c-0.5-1.3-0.8-2.7-1.3-4c1.5,0,2.9,0,4.4,0.1c18,1.3,35.9,0.8,53.4-4.5c2.5-0.8,5-1.9,7.3-3.1
			c9.6-5,11.5-13.7,9.7-22.9c-0.3-1.7-1-3.4-3.2-2.9c-15.3,2.9-30.1-1.2-45.1-2.9c-15.5-1.8-28.8,3.3-39.8,14.4
			c-0.9,0.9-1.9,1.5-2.9,2.2C70.8,66.4,70.9,64.7,71.8,63.8z M59,129c-0.6-0.6-1.5-1.2-1.8-1.9c-2.5-7.5-5.2-15.1-7.3-22.7
			c-1.3-4.4-1.8-9.1-2.6-13.6c0.4-9,3-13.1,10.9-16.1c1.9-0.7,2.3-1.6,2.3-3.6c0.1-3.3,0.7-6.5,1.5-9.7c0.4-1.5,1.7-2.8,2.7-4.1
			c0.4-0.4,1.2-0.5,1.8-0.8c0.1,0.6,0.4,1.3,0.2,1.8c-1.9,4.7-2.9,9.5-1.6,14.6c0.5,1.8-0.6,2.1-2.1,2.5c-8.7,2.6-11.2,6-10.9,15.2
			c0.3,11.3,3.8,21.8,7.5,32.3c0.4,1.1,1.2,2.2,1.1,3.3C60.6,127.2,59.6,128.1,59,129z M75.6,203.6c0.3-0.3,0.8-0.4,1.3-0.5
			c0.2,0.5,0.4,0.9,0.5,1.4c0.1,1,0.1,2,0,3c-0.3,3,0.7,5.6,2.9,7.6c5.9,5.3,11.9,10.6,18,15.8c3.3,2.8,3.2,2.4,0.2,5.7
			c-3.4,3.8-6.5,7.9-9.5,12.1c-1.3,1.8-2.1,3-3.8,0.5c-4.9-7.3-10-14.5-14.8-21.9c-1.4-2.2-1.8-4.9-2.5-7
			C69.2,213.6,71.6,208.3,75.6,203.6z M114,288.4c0,4.3-0.1,4.4-4.5,4.4c-10.2,0-20.3,0-30.5,0v0c-10.3,0-20.7,0-31,0
			c-4.3,0-4.3-0.1-4.4-4.5c0-1.7,0.1-3.3,0-5c-0.1-1.9,0.3-4.4-2.3-4.7c-0.5-0.1-1.7,2.8-2,4.4c-0.4,1.9-0.4,4-0.4,6
			c0,2.6-1,3.9-3.8,3.9c-10-0.1-20-0.1-30,0c-2.3,0-3.5-0.6-3.1-3.1c1.3-9.2,2-18.5,3.8-27.6c2.4-11.9,10.1-19.5,21.2-23.9
			c10.2-4.1,20.3-8.3,30.5-12.5c1.5-0.6,3-1.4,4.5-2.1c1.2-0.6,1.6-0.3,2.1,1c4.6,12,13,21.6,20.4,31.8c1.9,2.7,3.5,2.6,5.4-0.2
			c1.5-2.4,2.6-5.1,4.3-7.3c2.6-3.4,5.5-6.6,8.4-9.8c1.3-1.5,2.4-1.2,3.3,0.6c2.3,4.8,4.9,9.5,7.1,14.3c0.6,1.3,0.8,2.9,0.8,4.3
			C114,268.4,114,278.4,114,288.4z M115.5,247.6c-0.5-0.8-1.3-1.6-1.6-2.5c-3.2-9.8-10-16.3-18-22.3c-13.3-10-13.1-10.4-13.1-26.9
			v-10.5h-0.1c0-7.2,0-14.3,0-21.5c0-4.3-0.2-4.4-4.3-4.9c-10.7-1.5-18.5-12.3-16.6-22.8c0.7-3.9,2.6-6.9,6.6-7.9
			c3.8-0.9,7.2,0.6,9.1,3.7c2,3.2,3.5,6.8,4.4,10.4c1.2,5.2,1.9,10.5,2.2,15.8c1,17,8.9,30.1,22.3,39.9c5.9,4.3,12.6,7.4,18.8,11.2
			c1.9,1.2,4.8,2.5,5.1,4.2c0.7,3.4,1.2,7.3-1.1,10.6c-1.3,1.8-2.7,3.4-3.7,5.3c-2.9,5.2-5.7,10.5-8.5,15.7
			C116.6,246,116,246.8,115.5,247.6z M198.3,257.8c3.8,10.5,4.6,21.4,5.5,32.4c0.2,2-0.7,2.7-2.6,2.7c-6.2,0-12.3,0-18.5,0
			c-1.9,0-2.7-0.9-2.7-2.8c0-2-0.1-4-0.2-6c0-1.3,0.2-2.8-0.2-4c-0.4-1.3-1.4-2.3-2.1-3.5c-0.7,1.2-1.5,2.3-2,3.5
			c-0.3,0.7,0,1.7,0,2.5c0,1.8,0.1,3.7,0.1,5.5c0,4.7-0.1,4.7-4.7,4.7c-8,0-16,0-24,0s-16-0.1-24,0c-2.9,0-4.2-0.7-4.1-3.9
			c0.2-11.2-0.5-22.4,0.3-33.5c0.4-5.4,3.5-10.6,5.5-15.8c0.8-2.1,2.1-1.1,2.9,0.1c2.8,3.9,5.4,8,8.2,11.9c1.2,1.7,2.7,4.2,4.2,4.4
			c2.8,0.3,3.2-3.1,3.9-5.1c2.3-7.3,4.4-14.6,6.3-22c0.9-3.5,0.8-3.7,4.1-2.2c9.4,4.2,18.8,8.6,28.2,12.7
			C190.5,243.2,195.3,249.6,198.3,257.8z M256.5,182.7c-3.6,0.2-5.1,1.5-6.6,4.6c-5.3,10.9-13.9,18.3-25.1,23
			c-13.9,5.8-25.4,0.9-34.1-8.7c-7.1-7.9-8.7-17.7-9.7-27.7c-0.3-3.3,0-6.7,0-10h-0.1c0-3.3,0.1-6.6,0-10c-0.1-2.6,1-4.2,3.3-5.5
			c9-5.5,17.6-11.3,24.8-19.2c2.4-2.7,4.8-5.5,7.2-8.3c1.1-1.2,1.6-1.3,2.2,0.5c3.8,11.7,12,20.1,21.4,27.5
			c4.7,3.7,10.1,6.5,12.4,12.6c0.7,1.9,2.5,1.9,4.2,0.9c0.7-0.4,1.3-1,2-1.5c4.8-3.1,9-1.5,10.6,4.1
			C271.4,173.4,265.5,182.2,256.5,182.7z M291.4,244.2c-0.8-0.3-1.8-0.3-2.3-0.8c-1.2-1.3-2.5-2.7-3-4.3
			c-3.6-10.1-5.4-20.6-6.2-31.2c-1-14.1-1.2-28.3-2.2-42.4c-0.9-11.3-1.5-22.7-4.1-33.6c-4.3-18.1-16.2-29.3-34.6-33.3
			c-0.6-0.1-1.3-0.3-2-0.3c-4.5,0-8.8-1.1-13.2-1.7c-14.1-2-31.4,2.5-40.7,18.4c-3.8,6.6-5.8,13.8-6.9,21.2
			c-0.8,5.7-0.9,11.6-1.2,14.9c0.5,10.3,1.3,18.1,1.3,26c-0.1,15.5-0.7,30.9-1,46.4c0,0.7,0.1,1.4-0.2,2c-0.3,0.6-0.9,1.5-1.4,1.5
			c-0.7,0-1.7-0.6-2-1.2c-0.3-0.8-0.2-1.9-0.1-2.9c0.7-24.5,1.5-48.9,2.2-73.4c0.3-9.9,1.7-19.5,5-28.8
			c6.2-17.1,22.3-28.8,40.6-28.6c7.9,0.1,16,0.9,23.7,2.6c19.9,4.5,31.7,17.6,35.8,37.2c2,9.7,2.5,19.8,3.2,29.7
			c0.9,14.1,1.2,28.3,1.9,42.4c0.7,12.8,2.9,25.4,7.2,37.6C291.5,242.3,291.3,243.3,291.4,244.2z"/>
		<path d="M122,108.5c0.2,0,0.7,0,1.2,0.1c3.3,0.4,5.6,2,5.5,4.1c-0.3,3.2-2.8,3.3-5.1,3.5c-3.5,0.3-7,0.2-10.4,0.9
			c-4,0.8-7.8,2.4-11.8,3.7c-0.8,0.2-1.5,0.6-2.2,0.8c0.1-0.9,0-1.9,0.4-2.7c2.8-5.8,7.8-8.5,13.8-9.5
			C116,108.9,118.8,108.8,122,108.5z"/>
		<path d="M141.1,153c-1.2-0.4-3-0.9-4.8-1.4c1.7-0.8,3.3-2,5.1-2.4c6.2-1.6,6.3-0.8,4.7-8c-1-4.5-2.1-9-3-13.6
			c-0.1-0.6,0.5-1.3,0.8-2c0.4,0.5,1.1,0.8,1.2,1.4c1.9,6.7,3.9,13.4,5.5,20.1c0.7,3.1-0.6,4.6-3.8,5.4
			C145.2,152.8,143.6,152.8,141.1,153z"/>
		<path d="M114,130.6c-0.1-3.4,1.6-6,3.8-5.9c2.1,0,3.9,2.5,4,5.5c0.1,3.2-1.7,5.8-4,5.9C115.6,136,114,133.8,114,130.6z"/>
		<path d="M159.2,127.3c0.1,3.4-1.6,5.8-4,5.8c-2.2,0-3.9-2.3-3.9-5.4c0-3.2,1.9-6,4.1-6C157.4,121.7,159.1,124.1,159.2,127.3z"/>
		<path d="M242.1,153.3c-1,0.1-1.6,0.4-2,0.2c-5.9-3-12.1-2.9-18.4-2.6c-0.9,0.1-1.8-0.9-2.8-1.3c0.6-0.7,1-1.8,1.7-2.1
			c5.3-2.5,15.9-0.4,20,3.9C241.1,151.8,241.4,152.4,242.1,153.3z"/>
		<path d="M209.3,195.6c-1.9,0.3-4.7-0.7-7.1-1.5c-1-0.3-1.7-1.6-2.6-2.4c1.1-0.2,2.1-0.5,3.1-0.6c0.6-0.1,1.3,0.4,1.9,0.4
			c4.6-0.2,9.1-0.4,13.7-0.7c0.9-0.1,1.9-0.7,2.8-0.9c0.6-0.1,1.2,0.3,1.8,0.4c-0.3,0.7-0.4,1.9-0.8,2
			C218.1,193.6,214,194.8,209.3,195.6z"/>
		<path d="M231.7,164.7c0,3.1-1.7,5.4-3.9,5.4c-2.3,0-3.8-2.2-3.7-5.4c0.1-3.1,1.8-5.5,3.9-5.5C230.1,159.1,231.8,161.6,231.7,164.7
			z"/>
		<path d="M197.9,163.9c0.1,3.1-1.6,5.6-3.8,5.6c-2,0.1-3.7-2.3-3.8-5.1s1.7-5.7,3.6-5.9C196,158.2,197.9,160.8,197.9,163.9z"/>
		<path d="M208.3,182.4c-0.6,0.1-1.2,0.3-1.7,0.2c-5.8-1.3-7.6-4.9-5.1-10.2c1.1-2.4,2.3-4.8,3.6-7.1c0.4-0.7,1.3-1.1,2-1.7
			c0,0.9,0.1,1.9-0.1,2.8c-0.6,1.9-1.4,3.7-2.2,5.5c-1.9,4.7-1.9,5,2,8.3c0.6,0.5,1.5,0.6,2.3,1C208.9,181.6,208.6,182,208.3,182.4z
			"/>
		<path d="M195.9,150c-3.2,0.7-6.4,1.4-9.6,2.1c-0.6,0.1-1.2,0.1-1.8,0.1c0.3-0.7,0.4-1.6,0.9-2c4.1-3.3,8.8-4.4,14-3.3
			c0.9,0.2,1.5,1.4,2.3,2.1c-0.9,0.6-1.7,1.4-2.6,1.6c-0.9,0.2-2-0.1-2.9-0.3C195.9,150.3,195.9,150.1,195.9,150z"/>
		<path d="M249.7,249.7c-0.8,0.6-1.2,1-1.6,1.1c-5.6,0.9-11.1,1.7-16.7,2.5c-0.4,0.1-1-0.3-1.1-0.6c-0.1-0.4,0.1-1.1,0.4-1.3
			c1.1-0.7,2.3-1.6,3.5-1.8c4.3-0.6,8.6-0.9,12.9-1.2C247.8,248.4,248.6,249.2,249.7,249.7z"/>
		<path d="M209.8,248.4c2.6,0.5,5.2,0.9,7.7,1.6c0.5,0.1,0.8,1.2,1.1,1.8c-0.6,0.3-1.1,0.8-1.6,0.7c-4.1-0.5-8.2-1.1-12.3-1.7
			c-0.5-0.1-0.9-0.7-1.4-1.1c0.5-0.4,0.9-1,1.4-1c1.6-0.1,3.3-0.1,4.9-0.1C209.8,248.6,209.8,248.5,209.8,248.4z"/>
		<path d="M76.9,145.7c-0.8,1.3-1.3,2.2-1.8,3c-0.7-0.8-1.6-1.5-2-2.5c-0.4-1-0.2-2.3-0.5-3.4c-0.8-3.2-1.7-6.2-6-6
			c-0.5,0-0.9-0.6-1.4-0.9c0.4-0.5,0.8-1.2,1.3-1.3c2.9-0.9,5.5,0.1,6.9,2.5C75,139.7,75.8,142.8,76.9,145.7z"/>
	</g>
</g>
</svg>
