<svg id="Templates" xmlns="http://www.w3.org/2000/svg" viewBox="0 0 210.26 245.9"><defs><style>.cls-1{fill:#fff;}</style></defs><path d="M46,93A24.77,24.77,0,0,1,53.6,80.46a20.19,20.19,0,0,1,14-5.35c32.81.14,65.63.09,98.44.1h69c11.93,0,21,8.49,21.08,20.44.19,19-.05,38-.06,57,0,30-.43,59.95.25,89.91.27,11.85-6.66,19.46-15.61,22.73-.29.1-.5.41-.76.63H62c-2.79-1.95-5.6-3.88-8.37-5.86-3.89-2.77-5.5-7.13-7.62-11.13v-54a16.61,16.61,0,0,0,.68-3.26q0-14.67-.11-29.34A20.94,20.94,0,0,0,46,159ZM151,261.84q41.7,0,83.4,0a23.44,23.44,0,0,0,5.44-.44c7.78-1.87,12.32-7.67,12.34-15.84.05-22.31,0-44.61,0-66.91q0-42.19.07-84.39a13.6,13.6,0,0,0-5.47-11.2A17.51,17.51,0,0,0,235.3,79c-20.48.13-41,.09-61.43.09q-53.19,0-106.37,0C57,79,50.35,85.83,50.43,96.2c0,3,0,6,0,9q0,66.92-.08,133.83c0,2.49,0,5,.24,7.48.86,9.22,7.31,15.3,16.46,15.32C95,261.88,123,261.84,151,261.84Z" transform="translate(-46.04 -19.99)"/><path d="M82.54,20.64c2.17,0,4.34-.07,6.5,0,4.38.17,6,1.38,6.73,5.63.33,2,1.14,2.42,2.89,2.5a9.43,9.43,0,0,1,4.34.88c2.16,1.32,3.58,1,6,.13,3.74-1.26,8.16-.54,12.28-.63,1.9,0,3.8,0,5.7,0a10.23,10.23,0,0,0,2.48-.21c3.21-.91,5.61,3.77,9.65.7,2.16-1.64,6.41-.52,9.72-.65.33,0,.66,0,1,0,4.82.21,4.82.21,6-4.54A6.72,6.72,0,0,1,162.34,20a5.8,5.8,0,0,1,5.43,5.38c.08.83,0,1.66,0,2.5,0,1.6.25,2.38,2.31,1.67a12.3,12.3,0,0,1,10.15.56c1.9,1,2.44-.07,2.74-1.45.72-3.27,2.3-5.36,6-5.46,4-.1,6.06,1.8,6.88,5.62.43,2,1.72,2.53,3.76,1.45,4.32-2.29,8.65-2.28,12.54,1,1.52,1.29,2.43.72,3.85-.23,7.07-4.75,13.24-1.58,17.14,4,.19.27.49.68.4.88-1.61,3.69,1.05,6.89,1.12,10.34,0,3.11-4.2,7.58-8,8.76a11.25,11.25,0,0,1-10.46-1.46c-1.6-1.19-2.5-1.42-4.21-.17-3.66,2.69-7.72,2.81-11.76.73-1.36-.7-2.31-1.2-4-.16a7.81,7.81,0,0,1-8.87-.32c-1.54-1.09-2.35-1.08-3.75.13-.87.76-2.37.87-3.62,1.1-1.58.28-3.31.1-4.79.62-3.58,1.26-6.48-2.11-9.3-1.64-3.21.54-5.89,1.89-8.58-.95-.29-.31-1.4-.07-2,.2s-1.28,1.23-2,1.4c-3.54.8-6.41,2-7.71,6-.88,2.76-4.06,2.94-6.48,2.17-2.18-.69-4.11-2.29-4-5.07.06-1.81-.46-2.83-2.5-2.75a3.19,3.19,0,0,1-2.31-.62c-1.87-2.17-3.51-1.95-5.21.12a1,1,0,0,1-.39.3c-3.11,1.29-5.92-2.07-8.24-1.27-2.75.95-5.12,2.35-7.81.68-1.29-.81-2.16-1.08-3.55-.29-5.07,2.88-9.94,2.43-14.17-1.64-2-2-2.81-.07-4,.88-3.29,2.73-7.17,2.63-9.51-.54a7.73,7.73,0,0,1-1.23-4.08c-.17-4-.12-8-.08-12,0-1.94-.15-3.18-2.59-3.9a6.14,6.14,0,0,1-4.34-7.38c.55-2.7,3.13-4.42,6.83-4.49,2.16,0,4.33,0,6.49,0Zm26.71,20.83h.1c0,2.49-.07,5,0,7.48a1.92,1.92,0,0,0,2.74,1.92,3.2,3.2,0,0,0,1.71-2.26c.25-2.81.09-5.65.22-8.47A3,3,0,0,1,117.25,37c2.24-.07,2.74,1.46,2.78,3.3.06,2.66.1,5.32.14,8,0,1.38,0,2.68,2,2.7s2.09-1.1,2.15-2.56c.11-2.49.33-5,.45-7.47.1-2.2.62-4,3.34-3.93,2.89.11,2.82,2.31,2.9,4.32.09,2.33.1,4.66.13,7,0,1.43.12,2.61,2.07,2.65s2.54-1,2.49-2.79c-.09-3.15.14-6.34-.25-9.46-.62-5.07-4-7-8.92-5.45-.93.29-2.16,1.23-2.7.92a10.63,10.63,0,0,0-9.51-.58c-1.38.49-3.83-.65-4.51.11-.86,1-.46,3.1-.55,4.73C109.21,39.47,109.25,40.47,109.25,41.47ZM139,46.08h0c0,3.65-.09,7.32.07,11,0,.66,1.18,1.89,1.61,1.81.89-.17,2.16-.93,2.34-1.66a20,20,0,0,0,.16-5c0-1.7.23-2.54,2.22-1.59a8.26,8.26,0,0,0,4.24,1c5.23-.61,8.39-6.18,7.16-12.23-1-4.89-5-7.42-10.09-6.28-1.56.35-2.84,1.12-4.65.19s-3.17-.17-3.08,2.3C139.12,39.09,139,42.59,139,46.08Zm68.41-2.4h0a26.62,26.62,0,0,0,4.47-.08c.71-.12,1.87-1.1,1.82-1.59-.35-3.35-1-6.72-4.4-8.43a8.48,8.48,0,0,0-9,.5c-3.53,2.35-4,5.93-3.68,9.71s2.77,5.88,6,7.21c3.51,1.43,6.5.25,9.2-2,.44-.37,1-1.35.82-1.58a3,3,0,0,0-1.89-1.34c-.89,0-1.77.84-2.68.87A20.27,20.27,0,0,1,203,46.6c-.6-.12-1-1.22-1.5-1.88a11,11,0,0,1,2.46-1A22.55,22.55,0,0,1,207.43,43.68Zm-107-.23c5.25.45,6.05.24,6.49-1.6.58-2.4-1.45-6.58-3.92-8.05a7.84,7.84,0,0,0-1.33-.66,8.18,8.18,0,0,0-10.08,3c-2.5,3.61-2.16,9.45.73,12.47,3.5,3.67,9.47,4,13,.54a2.72,2.72,0,0,0,.65-2.08c0-.4-1-1-1.5-1-1.1.08-2.17.6-3.28.75a8.76,8.76,0,0,1-3.8.11c-.91-.3-1.51-1.54-2.25-2.37a19.7,19.7,0,0,1,2.84-1.16A10.78,10.78,0,0,1,100.38,43.45ZM80,39.85h0c0,2.48,0,5,0,7.45,0,1.73-.46,3.79,2.55,3.66,2.64-.11,2.23-1.9,2.25-3.5.06-5,.23-9.94.06-14.9-.09-2.77.78-4,3.6-3.67.49.06,1.16.19,1.46-.06.75-.6,1.84-1.4,1.84-2.12s-1-2.22-1.68-2.24c-5.13-.19-10.27-.17-15.4,0a2.45,2.45,0,0,0-1.61,1.83,4.06,4.06,0,0,0,1.58,2.48,4.09,4.09,0,0,0,2.42.2c2.2-.18,2.93.9,2.88,2.95C79.94,34.55,80,37.2,80,39.85Zm102.14,4h.09c0-1.16,0-2.32,0-3.48-.14-6.64-5.84-10-11.74-6.74-1.29.71-3.21,2.89-2.94,3.4,1,2,3.08,1.37,4.59.28a3.58,3.58,0,0,1,4.55-.06c.39.26,1,.87.9,1a2.4,2.4,0,0,1-1.2,1.21c-2.49.84-5.2,1.2-7.49,2.39-3.19,1.65-3.49,5.46-.85,7.87,1.91,1.75,4.14,2.72,6.82,1.65a8.91,8.91,0,0,1,3.19-.95c4.14.06,4.13.14,4.08-4.12C182.13,45.54,182.14,44.71,182.14,43.89Zm41-11.24-1.68.17c-3.46.42-5.61,2.2-6,5-.32,2.52,1.11,4.24,4.67,5.53a36,36,0,0,1,3.76,1.24,8.72,8.72,0,0,1,1.93,1.91c-.95.48-2,1.5-2.83,1.34-1.35-.26-2.49-1.54-3.85-1.91-1-.28-2.3.17-3.47.29.25,1,.19,2.26.8,2.93,2.53,2.82,7.59,3.45,11,1.54,2-1.11,3.52-2.69,3.33-5.1A5.12,5.12,0,0,0,227,40.8c-1.42-.44-2.91-.68-4.28-1.22A9.88,9.88,0,0,1,220.62,38a24.59,24.59,0,0,1,3-1c.41-.09.92.29,1.39.46,1.63.61,3.8,1.76,4.53-.37.27-.82-2.23-2.76-3.7-3.9C225.12,32.63,223.9,32.78,223.1,32.65ZM193.11,51c.29-.16,1.48-.42,1.76-1.07s-.08-2.47-.46-2.56c-4.29-1-2.31-4.46-2.75-6.89-.34-1.94-.18-3.69,2.59-3.64.51,0,1.41-1,1.45-1.52s-.7-1.89-1.1-1.89c-3.21,0-2.73-2.27-2.72-4.19S190.94,27,189.37,27s-2.53.56-2.4,2.31c.15,2-.16,3.33-2.52,4.05-1.23.37-2,2.77.16,3.23,2.69.56,2.37,2.19,2.38,4s-.06,3.66.09,5.48C187.36,49.74,188.91,51.12,193.11,51ZM164,37.4h-.07c0-3.66,0-7.32,0-11,0-1.57-.41-2.82-2.19-2.34a3,3,0,0,0-1.88,2.07q-.18,11.24.06,22.48a3,3,0,0,0,1.83,2.15c1.76.45,2.24-.86,2.24-2.39C164,44.73,164,41.07,164,37.4Z" transform="translate(-46.04 -19.99)"/><path class="cls-1" d="M151,261.84c-28,0-55.93,0-83.9,0-9.15,0-15.6-6.1-16.46-15.32-.23-2.48-.24-5-.24-7.48q0-66.92.08-133.83c0-3,0-6,0-9C50.35,85.83,57,79,67.5,79q53.19,0,106.37,0c20.48,0,40.95,0,61.43-.09a17.51,17.51,0,0,1,11.46,4.07,13.6,13.6,0,0,1,5.47,11.2q-.09,42.19-.07,84.39c0,22.3,0,44.6,0,66.91,0,8.17-4.56,14-12.34,15.84a23.44,23.44,0,0,1-5.44.44Q192.66,261.86,151,261.84Zm-3.68-85.73h-.07c0-12.49,0-25,0-37.47,0-6.36-.38-6.7-6.89-6.71h-23c-13.82,0-27.65,0-41.47.06-5.18,0-6.34,1.17-6.76,6.4-.06.66-.1,1.33-.1,2q0,37.49.11,74.95c0,4.08.94,5,4.93,5.34,1.16.1,2.33.06,3.5.06H111c10,0,20,.11,30-.08,5.6-.11,6.3-1.09,6.3-6.56Q147.27,195.11,147.28,176.11Zm87.87.17q0-19.22,0-38.44c0-5.54-.33-5.87-6-5.88q-14.22,0-28.45,0-18.74,0-37.45.06c-4.59,0-5.53,1-5.59,5.55,0,2,0,4,0,6q0,35.69-.05,71.37c0,4.74.56,5.37,5.42,5.68,3.31.2,6.65.12,10,.12,18.47,0,36.94.07,55.41,0,6.2,0,6.74-.78,6.74-7Zm-97.23-66.43v-.1h30c11,0,22,.06,32.94,0,1.26,0,3.53-.28,3.61-.73a23.25,23.25,0,0,0,.15-7.35c-.08-.52-2.55-1-3.92-1q-60.63-.11-121.27-.1c-1.66,0-3.33-.12-5,0-.72.06-2,.56-2,.92a25.2,25.2,0,0,0,.2,7.37c.15.63,2.91.89,4.48.9Q107.48,109.9,137.92,109.85Zm-23.71,121h-3.49c-11.48,0-23,0-34.43,0-1.26,0-3.53.23-3.61.68a22.46,22.46,0,0,0-.26,7.31c.08.59,2.44,1.2,3.75,1.21,16.3.08,32.6.07,48.9.06,9,0,18,0,27-.08,1.26,0,3.49-.3,3.6-.8A22.51,22.51,0,0,0,156,232c-.06-.52-2.48-1.05-3.82-1.05C139.5,230.83,126.86,230.86,114.21,230.86ZM97.68,124.22v-.08c7.66,0,15.32,0,23,0,2.45,0,3.8-.72,3.41-3.42a12.28,12.28,0,0,1,0-2.5c.15-2.38-1-3.24-3.32-3.17-3,.09-6,0-9,0q-17.47,0-34.95,0c-4.79,0-4.79,0-4.75,4.5a8.36,8.36,0,0,1,0,1c-.33,2.79.81,3.74,3.67,3.67C83,124.1,90.36,124.22,97.68,124.22Zm87.78,0v-.11c7.16,0,14.31,0,21.47,0,4.27,0,4.27-.1,4.26-4.5v-.5c-.08-3.83-.08-3.92-3.86-4-8.16-.06-16.31,0-24.47,0-6.66,0-13.32.06-20-.08-2.4,0-3.41.81-3.17,3.18a14.81,14.81,0,0,1,0,1.49c0,4.41,0,4.47,4.27,4.5C171.14,124.26,178.3,124.23,185.46,124.23Z" transform="translate(-46.04 -19.99)"/><path class="cls-1" d="M109.25,41.47c0-1,0-2,0-3,.09-1.63-.31-3.76.55-4.73.68-.76,3.13.38,4.51-.11a10.63,10.63,0,0,1,9.51.58c.54.31,1.77-.63,2.7-.92,4.91-1.56,8.3.38,8.92,5.45.39,3.12.16,6.31.25,9.46.05,1.75-.41,2.83-2.49,2.79s-2.06-1.22-2.07-2.65c0-2.32,0-4.65-.13-7-.08-2,0-4.21-2.9-4.32-2.72-.11-3.24,1.73-3.34,3.93-.12,2.49-.34,5-.45,7.47-.06,1.46-.25,2.59-2.15,2.56s-2-1.32-2-2.7c0-2.66-.08-5.32-.14-8,0-1.84-.54-3.37-2.78-3.3A3,3,0,0,0,114,40.14c-.13,2.82,0,5.66-.22,8.47a3.2,3.2,0,0,1-1.71,2.26A1.92,1.92,0,0,1,109.37,49c-.09-2.49,0-5,0-7.48Z" transform="translate(-46.04 -19.99)"/><path class="cls-1" d="M139,46.08c0-3.49.1-7,0-10.47-.09-2.47,1.41-3.17,3.08-2.3s3.09.16,4.65-.19c5.11-1.14,9.1,1.39,10.09,6.28,1.23,6.05-1.93,11.62-7.16,12.23a8.26,8.26,0,0,1-4.24-1c-2-.95-2.26-.11-2.22,1.59a20,20,0,0,1-.16,5c-.18.73-1.45,1.49-2.34,1.66-.43.08-1.58-1.15-1.61-1.81-.16-3.65-.07-7.32-.07-11Zm13.52-3.31c.38-3-1.33-5.44-4-5.76a4.62,4.62,0,0,0-5.2,4.1,5.07,5.07,0,0,0,4.31,6C150.24,47.39,152.17,45.66,152.54,42.77Z" transform="translate(-46.04 -19.99)"/><path class="cls-1" d="M207.43,43.68a22.55,22.55,0,0,0-3.49,0,11,11,0,0,0-2.46,1c.49.66.9,1.76,1.5,1.88a20.27,20.27,0,0,0,5.16.36c.91,0,1.79-.89,2.68-.87a3,3,0,0,1,1.89,1.34c.16.23-.38,1.21-.82,1.58-2.7,2.25-5.69,3.43-9.2,2-3.27-1.33-5.74-3.41-6-7.21s.15-7.36,3.68-9.71a8.48,8.48,0,0,1,9-.5c3.37,1.71,4.05,5.08,4.4,8.43.05.49-1.11,1.47-1.82,1.59a26.62,26.62,0,0,1-4.47.08ZM205,40.59l3.56-1.74c-1-.68-2.06-1.94-3-1.89-1.2.06-2.35,1.21-3.53,1.89Z" transform="translate(-46.04 -19.99)"/><path class="cls-1" d="M100.38,43.45a10.78,10.78,0,0,0-2.48,0,19.7,19.7,0,0,0-2.84,1.16c.74.83,1.34,2.07,2.25,2.37a8.76,8.76,0,0,0,3.8-.11c1.11-.15,2.18-.67,3.28-.75.51,0,1.45.56,1.5,1a2.72,2.72,0,0,1-.65,2.08c-3.5,3.42-9.47,3.13-13-.54-2.89-3-3.23-8.86-.73-12.47a8.18,8.18,0,0,1,10.08-3,7.84,7.84,0,0,1,1.33.66c2.47,1.47,4.5,5.65,3.92,8.05C106.43,43.69,105.63,43.9,100.38,43.45Zm-2.56-3.12,3.85-1c-1.08-.84-2.12-2.3-3.23-2.35s-2.24,1.31-3.37,2.06Z" transform="translate(-46.04 -19.99)"/><path class="cls-1" d="M80,39.85c0-2.65-.06-5.3,0-8,0-2-.68-3.13-2.88-2.95a4.09,4.09,0,0,1-2.42-.2,4.06,4.06,0,0,1-1.58-2.48,2.45,2.45,0,0,1,1.61-1.83c5.13-.14,10.27-.16,15.4,0,.63,0,1.68,1.46,1.68,2.24S90.73,28.23,90,28.83c-.3.25-1,.12-1.46.06-2.82-.35-3.69.9-3.6,3.67.17,5,0,9.94-.06,14.9,0,1.6.39,3.39-2.25,3.5-3,.13-2.51-1.93-2.55-3.66-.06-2.48,0-5,0-7.45Z" transform="translate(-46.04 -19.99)"/><path class="cls-1" d="M182.14,43.89c0,.82,0,1.65,0,2.48.05,4.26.06,4.18-4.08,4.12a8.91,8.91,0,0,0-3.19.95c-2.68,1.07-4.91.1-6.82-1.65-2.64-2.41-2.34-6.22.85-7.87,2.29-1.19,5-1.55,7.49-2.39a2.4,2.4,0,0,0,1.2-1.21c.08-.16-.51-.77-.9-1a3.58,3.58,0,0,0-4.55.06c-1.51,1.09-3.54,1.72-4.59-.28-.27-.51,1.65-2.69,2.94-3.4,5.9-3.26,11.6.1,11.74,6.74,0,1.16,0,2.32,0,3.48Zm-3.18.16c-1.74-.48-2.5-1-3.06-.8-1.72.54-4.32.26-4.23,3,0,.63,2.2,1.92,2.83,1.65C175.92,47.26,177,45.84,179,44.05Z" transform="translate(-46.04 -19.99)"/><path class="cls-1" d="M223.1,32.65c.8.13,2,0,2.7.52,1.47,1.14,4,3.08,3.7,3.9-.73,2.13-2.9,1-4.53.37-.47-.17-1-.55-1.39-.46a24.59,24.59,0,0,0-3,1,9.88,9.88,0,0,0,2.12,1.59c1.37.54,2.86.78,4.28,1.22a5.12,5.12,0,0,1,3.78,4.75c.19,2.41-1.33,4-3.33,5.1-3.42,1.91-8.48,1.28-11-1.54-.61-.67-.55-1.94-.8-2.93,1.17-.12,2.42-.57,3.47-.29,1.36.37,2.5,1.65,3.85,1.91.83.16,1.88-.86,2.83-1.34a8.72,8.72,0,0,0-1.93-1.91,36,36,0,0,0-3.76-1.24c-3.56-1.29-5-3-4.67-5.53.36-2.76,2.51-4.54,6-5Z" transform="translate(-46.04 -19.99)"/><path class="cls-1" d="M193.11,51c-4.2.1-5.75-1.28-6-5-.15-1.82-.08-3.65-.09-5.48s.31-3.41-2.38-4c-2.2-.46-1.39-2.86-.16-3.23,2.36-.72,2.67-2.09,2.52-4.05-.13-1.75.78-2.32,2.4-2.31s2.52.45,2.51,2.24-.49,4.2,2.72,4.19c.4,0,1.13,1.26,1.1,1.89s-.94,1.53-1.45,1.52c-2.77,0-2.93,1.7-2.59,3.64.44,2.43-1.54,5.86,2.75,6.89.38.09.76,1.87.46,2.56S193.4,50.86,193.11,51Z" transform="translate(-46.04 -19.99)"/><path class="cls-1" d="M164,37.4c0,3.67,0,7.33,0,11,0,1.53-.48,2.84-2.24,2.39a3,3,0,0,1-1.83-2.15q-.24-11.24-.06-22.48a3,3,0,0,1,1.88-2.07c1.78-.48,2.21.77,2.19,2.34,0,3.66,0,7.32,0,11Z" transform="translate(-46.04 -19.99)"/><path d="M147.28,176.11q0,19,0,38c0,5.47-.7,6.45-6.3,6.56-10,.19-20,.07-30,.08H77.53c-1.17,0-2.34,0-3.5-.06-4-.37-4.91-1.26-4.93-5.34Q69,177.85,69,140.37c0-.66,0-1.33.1-2,.42-5.23,1.58-6.38,6.76-6.4,13.82,0,27.65,0,41.47-.06h23c6.51,0,6.88.35,6.89,6.71,0,12.49,0,25,0,37.47Zm-9.31,0h0c0-10.32,0-20.63,0-31,0-2.46-.62-3.55-3.34-3.54-17.14.11-34.28,0-51.42.1-4.38,0-4.55.21-4.59,4.5-.06,6.65,0,13.31,0,20,0,13.48,0,27,0,40.43,0,4.23.13,4.32,4,4.32,17.31,0,34.62,0,51.93.07,2.71,0,3.35-.94,3.33-3.45C137.91,197.06,138,186.58,138,176.09Z" transform="translate(-46.04 -19.99)"/><path d="M235.15,176.28v37.44c0,6.19-.54,6.94-6.74,7-18.47.09-36.94,0-55.41,0-3.33,0-6.67.08-10-.12-4.86-.31-5.42-.94-5.42-5.68q0-35.68.05-71.37c0-2,0-4,0-6,.06-4.51,1-5.52,5.59-5.55q18.72-.09,37.45-.06,14.22,0,28.45,0c5.63,0,6,.34,6,5.88Q235.14,157.06,235.15,176.28Zm-9.28-.07q0-15.22,0-30.44c0-4.5,0-4.47-4.29-4.33-3.32.11-6.65.18-10,.18-13.3,0-26.61-.09-39.91,0-4.57,0-4.68.14-4.69,4.25,0,20.46,0,40.92-.06,61.37,0,2.63.53,3.81,3.55,3.79,17.13-.14,34.26-.05,51.39-.09,3.91,0,4-.09,4-4.25C225.89,196.5,225.86,186.36,225.87,176.21Z" transform="translate(-46.04 -19.99)"/><path d="M137.92,109.85q-30.43,0-60.88,0c-1.57,0-4.33-.27-4.48-.9a25.2,25.2,0,0,1-.2-7.37c0-.36,1.31-.86,2-.92,1.66-.12,3.33,0,5,0q60.65,0,121.27.1c1.37,0,3.84.43,3.92,1a23.25,23.25,0,0,1-.15,7.35c-.08.45-2.35.73-3.61.73-11,0-22,0-32.94,0h-30Z" transform="translate(-46.04 -19.99)"/><path d="M114.21,230.86c12.65,0,25.29,0,37.93,0,1.34,0,3.76.53,3.82,1.05a22.51,22.51,0,0,1-.34,7.32c-.11.5-2.34.78-3.6.8-9,.08-18,.08-27,.08-16.3,0-32.6,0-48.9-.06-1.31,0-3.67-.62-3.75-1.21a22.46,22.46,0,0,1,.26-7.31c.08-.45,2.35-.68,3.61-.68,11.48-.05,22.95,0,34.43,0h3.49Z" transform="translate(-46.04 -19.99)"/><path d="M97.68,124.22c-7.32,0-14.64-.12-22,.06-2.86.07-4-.88-3.67-3.67a8.36,8.36,0,0,0,0-1c0-4.45,0-4.48,4.75-4.5q17.47,0,34.95,0c3,0,6,.08,9,0,2.29-.07,3.47.79,3.32,3.17a12.28,12.28,0,0,0,0,2.5c.39,2.7-1,3.44-3.41,3.42-7.65-.07-15.31,0-23,0Z" transform="translate(-46.04 -19.99)"/><path d="M185.46,124.23c-7.16,0-14.32,0-21.47,0-4.28,0-4.28-.09-4.27-4.5a14.81,14.81,0,0,0,0-1.49c-.24-2.37.77-3.22,3.17-3.18,6.65.14,13.31.07,20,.08,8.16,0,16.31,0,24.47,0,3.78,0,3.78.13,3.86,4v.5c0,4.4,0,4.47-4.26,4.5-7.16.06-14.31,0-21.47,0Z" transform="translate(-46.04 -19.99)"/><path d="M152.54,42.77c-.37,2.89-2.3,4.62-4.91,4.39a5.07,5.07,0,0,1-4.31-6,4.62,4.62,0,0,1,5.2-4.1C151.21,37.33,152.92,39.77,152.54,42.77Z" transform="translate(-46.04 -19.99)"/><path d="M205,40.59l-3-1.74c1.18-.68,2.33-1.83,3.53-1.89,1-.05,2,1.21,3,1.89Z" transform="translate(-46.04 -19.99)"/><path d="M97.82,40.33l-2.75-1.26C96.2,38.32,97.35,37,98.44,37s2.15,1.51,3.23,2.35Z" transform="translate(-46.04 -19.99)"/><path d="M179,44.05c-2,1.79-3,3.21-4.46,3.84-.63.27-2.81-1-2.83-1.65-.09-2.73,2.51-2.45,4.23-3C176.46,43.08,177.22,43.57,179,44.05Z" transform="translate(-46.04 -19.99)"/><path class="cls-1" d="M138,176.09c0,10.49-.06,21,0,31.45,0,2.51-.62,3.46-3.33,3.45-17.31-.12-34.62,0-51.93-.07-3.91,0-4-.09-4-4.32-.06-13.47,0-26.95,0-40.43,0-6.66-.09-13.32,0-20,0-4.29.21-4.49,4.59-4.5,17.14-.06,34.28,0,51.42-.1,2.72,0,3.36,1.08,3.34,3.54-.09,10.32,0,20.63,0,31Z" transform="translate(-46.04 -19.99)"/><path class="cls-1" d="M225.87,176.21c0,10.15,0,20.29,0,30.44,0,4.16-.07,4.24-4,4.25-17.13,0-34.26-.05-51.39.09-3,0-3.56-1.16-3.55-3.79.08-20.45,0-40.91.06-61.37,0-4.11.12-4.24,4.69-4.25,13.3-.05,26.61,0,39.91,0,3.33,0,6.66-.07,10-.18,4.25-.14,4.28-.17,4.29,4.33Q225.89,161,225.87,176.21Z" transform="translate(-46.04 -19.99)"/></svg>