<svg id="YourTree" xmlns="http://www.w3.org/2000/svg" viewBox="0 0 639.96 211.34"><path id="_underline_" data-name="&lt;underline&gt;" d="M1.24,188c2.23,3,4.39,6,6.69,8.9a66.73,66.73,0,0,0,5.79,6.74c3.43,3.31,5.14,3.24,8.06-.46,3.58-4.54,6.77-9.39,10.32-13.94A54.78,54.78,0,0,1,39,181.64c7.31-6.43,16.11-6.75,24.12-1.26,6.2,4.24,10.48,10.21,14.88,16.1a60.54,60.54,0,0,0,6,7.13c3.41,3.32,5.13,3.24,8.06-.46,3.58-4.54,6.76-9.39,10.32-14a55.85,55.85,0,0,1,6.93-7.56c7.31-6.43,16.12-6.75,24.12-1.26,6.2,4.25,10.48,10.21,14.88,16.1a60.54,60.54,0,0,0,6,7.13c3.42,3.32,5.14,3.24,8.06-.47,3.58-4.53,6.76-9.38,10.32-13.94a55.28,55.28,0,0,1,6.94-7.56c7.31-6.43,16.11-6.75,24.12-1.26,6.19,4.25,10.47,10.21,14.87,16.1a58.9,58.9,0,0,0,6,7.13c3.41,3.32,5.13,3.24,8.05-.47,3.58-4.53,6.77-9.38,10.32-13.94a55.36,55.36,0,0,1,6.94-7.57c7.31-6.42,16.11-6.73,24.12-1.25,6.2,4.25,10.48,10.21,14.87,16.1a60,60,0,0,0,6.05,7.13c3.41,3.32,5.13,3.24,8.06-.47,3.58-4.54,6.76-9.38,10.31-13.94a56,56,0,0,1,6.94-7.57c7.31-6.42,16.12-6.73,24.12-1.25,6.2,4.25,10.48,10.21,14.88,16.11a59.64,59.64,0,0,0,6,7.12c3.41,3.32,5.13,3.24,8.06-.47,3.58-4.54,6.76-9.39,10.32-13.94a54.78,54.78,0,0,1,6.94-7.57c7.31-6.43,16.11-6.73,24.12-1.24,6.19,4.24,10.47,10.2,14.87,16.1a58.8,58.8,0,0,0,6.05,7.12c3.41,3.32,5.12,3.24,8-.47,3.58-4.54,6.77-9.39,10.32-13.94a54.78,54.78,0,0,1,6.94-7.57c7.31-6.43,16.11-6.73,24.12-1.24,6.2,4.24,10.47,10.21,14.87,16.1a60.62,60.62,0,0,0,6.05,7.13c3.41,3.31,5.13,3.23,8.06-.48,3.57-4.54,6.76-9.39,10.31-13.95a55.93,55.93,0,0,1,6.94-7.56c7.32-6.43,16.11-6.74,24.13-1.24,6.19,4.25,10.47,10.21,14.87,16.1a59.74,59.74,0,0,0,6,7.13c3.41,3.31,5.14,3.24,8.06-.49,3.76-4.79,7-10,10.88-14.68a47,47,0,0,1,9.42-9c5.71-3.89,12-3.73,18.36-.65V200c-1.91-1.66-3.31-2.93-4.76-4.14-3.54-3-4.91-3-7.74.58-3.59,4.52-6.77,9.38-10.34,13.92a52.43,52.43,0,0,1-7.27,7.9c-7.58,6.39-16,6.53-24.1.89-6.16-4.28-10.42-10.26-14.8-16.17a50.86,50.86,0,0,0-5.75-6.75c-3.74-3.53-5.25-3.45-8.38.53-3.47,4.42-6.54,9.16-10,13.57a53.41,53.41,0,0,1-7.63,8.19c-7.39,6.14-15.76,6.17-23.73.66-6-4.19-10.24-10-14.54-15.78a54.79,54.79,0,0,0-5.33-6.51c-4.43-4.39-5.9-4.3-9.66.56-3.34,4.33-6.32,8.94-9.72,13.22a52,52,0,0,1-7.7,8.12c-7.05,5.74-15.4,5.79-23,.68C422.44,215.14,418.1,209,413.59,203a54,54,0,0,0-6.83-7.65c-2.83-2.56-4.21-2.44-6.64.6-3.71,4.62-7,9.61-10.68,14.25a54.93,54.93,0,0,1-8,8.5c-7,5.77-15.41,5.83-23,.73-6.37-4.28-10.72-10.39-15.23-16.4a54.6,54.6,0,0,0-6.82-7.66c-2.85-2.58-4.22-2.48-6.65.55-3.71,4.62-7,9.61-10.67,14.25a56.43,56.43,0,0,1-8,8.51c-7,5.78-15.41,5.86-23,.78-6.37-4.28-10.72-10.39-15.24-16.39a54.61,54.61,0,0,0-6.81-7.67c-2.87-2.61-4.23-2.52-6.65.49-3.72,4.62-7,9.61-10.68,14.25a56.88,56.88,0,0,1-8,8.51c-7.05,5.8-15.41,5.9-23,.83-6.38-4.27-10.75-10.37-15.24-16.38a53.41,53.41,0,0,0-6.43-7.39c-3.23-3-4.62-2.87-7.36.49-3,3.62-5.49,7.6-8.43,11.25s-5.93,7.73-9.54,10.86c-7.29,6.32-15.78,6.35-23.7.92C141,215,136.68,209,132.29,203.14a54.72,54.72,0,0,0-5.71-6.79c-3.92-3.76-5.41-3.67-8.7.54-3.47,4.43-6.54,9.17-10,13.58a52.93,52.93,0,0,1-7.66,8.16c-7.22,5.93-15.59,6-23.36.65C70.63,215,66.34,209.08,62,203.17a53.93,53.93,0,0,0-5.36-6.48c-4.28-4.18-5.75-4.1-9.35.53-3.35,4.32-6.32,8.95-9.73,13.21a54,54,0,0,1-8,8.46c-9.81,7.87-20.77,4-28.31-4.15a4.18,4.18,0,0,1-1.1-2.51c-.08-7.93,0-15.86,0-23.78Z" transform="translate(-0.04 -11.86)"/><g id="_title_" data-name="&lt;title&gt;"><path d="M524.8,121.83a18.4,18.4,0,0,0-1.09,12.66c1.24,4.8,5.17,6.84,9.81,5.06a24.6,24.6,0,0,0,6.55-4.33,72.53,72.53,0,0,0,6.7-6.54c2.25-2.45,5-2.9,8.1-2.71,4.43.27,6.2,2.4,5.14,6.79a28.16,28.16,0,0,1-2.65,6.47c-7.46,13.82-22.07,20.72-35.73,17-9.9-2.72-15.87-10.13-16.22-20.45-.17-5-.17-10,.11-15a12.67,12.67,0,0,0-4.88-11.09c-2.45-2-4.93-4.1-3.26-7.56a96.22,96.22,0,0,1-10,2.25c-4.29.5-4.37-4.26-7-6.49-5.94,4.66-11.13,9.82-14.56,16.35C460.17,125,454.92,136,449.52,146.89c-1.14,2.32-1.52,5.58-4.88,5.58-3.62,0-7.16-.83-9.47-4.15-2.91-4.16-2.5-8.33-.67-12.87q6.28-15.61,12-31.46c1.55-4.28.4-6.18-4.12-7.64A5,5,0,0,1,438.73,92c-.92-5,2.13-10.54,7-11.74a38.08,38.08,0,0,1,10.18-.76c3.38.12,5.21,2.54,6.14,5.62.79,2.65,1.52,5.32,2.53,8.9A52.35,52.35,0,0,0,469,89.78a41.48,41.48,0,0,1,16.13-11.72,9,9,0,0,1,8.49.54c6.52,3.62,9.39,10.52,7.75,18.41l9.44,2.74c1-1.6,2.33-3.63,3.62-5.68,7-11.12,16.37-18.72,30-20,7.32-.69,17.71,5.1,21,11.75,3.45,7,2,16.9-3.64,22.69a120.84,120.84,0,0,1-10.62,9.17c-6.37,5.11-13.84,5.13-21.44,4.28-1.08-.12-2.14-.38-3.22-.51A7.3,7.3,0,0,0,524.8,121.83ZM527,105.9c9,5.62,21.55-4.09,22.32-11,.37-3.38-1.71-5.11-4.94-3.59a44.18,44.18,0,0,0-9.35,6C532.21,99.75,529.89,102.8,527,105.9Z" transform="translate(-0.04 -11.86)"/><path d="M44.61,160.62c1.85-8.05,3.7-17.88,6.42-27.47,3.07-10.78,7-21.32,10.32-32a6.4,6.4,0,0,0-.81-5.06C48.8,81,45.84,63.66,46.32,45.28c.1-4.06.25-8.12.27-12.18a33.67,33.67,0,0,1,4.94-16.89c1-1.76,3.57-3.69,5.36-3.64a6.79,6.79,0,0,1,5,4A101.05,101.05,0,0,1,65,33.46c1,10.39,1.4,20.85,2.42,31.25a45.47,45.47,0,0,0,2.79,10.85c2.14,5.89,5.64,6.6,10.18,2.13,3.56-3.5,6.9-7.23,10.22-11,10.89-12.26,21.69-24.6,32.61-36.82,3.64-4.07,7.46-8,12.89-9.81,2.83-.93,4.79-.78,5.55,2.72a10.62,10.62,0,0,0,2.43,4.49c2.56,2.89,1.86,5.29-.6,7.71-2.78,2.74-5.59,5.45-8.25,8.3Q118.59,61.1,102.06,79c-6.58,7.1-13.19,14.18-19.63,21.41a15.2,15.2,0,0,0-3.06,5.57c-5.73,19-11.28,38-17,57a37.9,37.9,0,0,1-3.5,7.64c-1.47,2.58-3.82,3.22-6.38,1.56C48.79,169.75,44,168.21,44.61,160.62Z" transform="translate(-0.04 -11.86)"/><path d="M396.1,39c-3.44,0-5.44.06-7.43,0-8.26-.31-16.53-.62-24.79-1a13.61,13.61,0,0,1-4.5-1.13c-3.13-1.32-4.25-4-4.19-7.21a5.57,5.57,0,0,1,4.7-5.68,98.75,98.75,0,0,1,14.78-2c7-.28,14,0,21.06.23,3.12.1,4.87-.83,5.67-4.11a7.83,7.83,0,0,1,8.69-6.15c4.4.4,6.82,2.77,7.64,7.41.19,1,.49,2.07.85,3.56,9.16-.65,18.14-1.39,27.14-1.86,4.32-.22,8.8-.51,13,.38,2.3.5,4.31,3.19,6,5.25,1,1.23,1.22,3.15,1.8,4.8-1,3.32-4,3.33-6.46,3.56-12.43,1.13-24.88,2.17-37.33,3-3.88.24-6.22,1.79-7.19,5.39-2.46,9.17-4.79,18.37-7.26,27.54-1.14,4.21-2.63,8.33-3.67,12.57-1.16,4.7-1.88,9.5-3,14.21-.71,3-1.83,5.93-2.68,8.91a41.1,41.1,0,0,0-1.45,5.86c-2.37,17.39-5.88,34.45-14.08,50.21-2.07,4-3.13,4.55-7.39,2.75a19.88,19.88,0,0,1-5.54-3.39c-2.62-2.37-3.37-5.3-2.25-8.92a514.14,514.14,0,0,0,15.48-62.22C386,78.15,390,65.76,393.12,53.2,394.19,48.88,395,44.48,396.1,39Z" transform="translate(-0.04 -11.86)"/><path d="M609.06,121c-3.69-.46-7.54-1.1-11.41-1.4-4.69-.36-5.74.63-6.45,5.32,0,.31-.1.62-.14.93-1.1,11.06,6.85,17,16.92,12.25,3.75-1.76,6.93-4.72,10.43-7.05,4-2.69,7.72-1.85,10.44,2.16,1.35,2,1.71,4,.41,6.13-6.8,11-22,21.77-38.39,16.55-10.81-3.46-17.13-11.49-17.08-24.15.08-21,8.45-38.61,25-51.63,8.16-6.41,17.89-7.83,28-4.64C638,79,642.7,88.51,638.46,99.31c-4,10.26-10.6,18-21.76,20.76A61.12,61.12,0,0,1,609.06,121Zm-10.79-16.41c2.73.81,4.56,1.51,6.45,1.89,7.29,1.47,12.14-2.6,16.51-7.55,1.51-1.71,3.57-3.44,2.27-6.12s-4-3.48-6.7-3.38a11.07,11.07,0,0,0-5.36,1.21C606.26,93.88,602.18,98.3,598.27,104.55Z" transform="translate(-0.04 -11.86)"/><path d="M181.25,98.31c-1.75,22-12.23,38.15-29.51,50.39-6.53,4.63-13.76,6.39-21.54,6.81a10.85,10.85,0,0,1-8.62-2.9c-5.68-5.6-9.78-11.52-9.07-20.46,1.89-23.67,14.6-39.92,34.18-51.37,4.6-2.69,10.67-3.42,16.16-3.88,6.52-.54,14.82,6,16.64,12.29A91.2,91.2,0,0,1,181.25,98.31Zm-18.66,4.25c-.71-1.61-1.14-4.6-2.86-6-2.41-1.9-5,.31-7.11,1.92-6.84,5.32-12.86,11.51-16.38,19.49a38.48,38.48,0,0,0-3.11,13c-.32,5.3,3.1,7.24,8,5.35a16.2,16.2,0,0,0,2.51-1.23C155.55,128,159.57,116.23,162.59,102.56Z" transform="translate(-0.04 -11.86)"/><path d="M205.77,131.94c4.47.38,7-1.65,9.13-3.84,4.43-4.6,9.1-9.14,12.6-14.41a301.1,301.1,0,0,0,17.25-29c4.54-8.83,10.25-7.45,16.43-2.08,2.13,1.85,1.31,3.9.42,6-4.14,9.62-8.29,19.23-12.37,28.87a58,58,0,0,0-2.18,6.18c-3,9.85-5,19.62,3.43,28.17a12.51,12.51,0,0,1-10.12,6.46c-3.8.32-6.48-2.57-7.88-5.74s-1.84-6.53-2.37-9.87a86.18,86.18,0,0,1-.42-9c-2.58,1.86-4.22,2.87-5.65,4.12-4.45,3.92-8.66,8.14-13.27,11.86-6,4.82-9.14,4.36-14.52-1.06-4.74-4.78-6.51-10.32-5.63-17.05a117.77,117.77,0,0,1,16.25-47c5-8.21,10.32-8,15.46.17,2.11,3.35,2.9,6.08.1,10.09-6.91,9.88-11.86,20.89-15.73,32.35A39.07,39.07,0,0,0,205.77,131.94Z" transform="translate(-0.04 -11.86)"/><path d="M292,105.68c4.51-3.72,8.78-7.79,13.59-11.05a128.56,128.56,0,0,1,16.62-9.37c2.55-1.22,5.73-1.35,8.65-1.53,3.78-.24,7.07.79,8.88,4.68.56,1.22,1.75,2.15,2.81,3.4-1.39,4-4.26,6.13-8.32,7.16a45.15,45.15,0,0,0-9.71,3.13c-11,5.65-21.62,11.57-30.13,21a35.75,35.75,0,0,0-8.62,18.25,19.26,19.26,0,0,1-5.27,10.73c-2.2,2.16-4.43,2.43-7.12.66-5.8-3.82-8.27-8.59-6.77-15.85,3.8-18.4,8.75-36.4,16.32-53.63.69-1.57,1.45-3.11,2.26-4.62a10.06,10.06,0,0,1,13.18-4.35,4.89,4.89,0,0,1,3.07,5.7,55.61,55.61,0,0,1-2.85,9.83c-1.5,3.76-3.51,7.31-5.27,11-.71,1.48-1.34,3-2,4.5Z" transform="translate(-0.04 -11.86)"/></g></svg>