<svg xmlns="http://www.w3.org/2000/svg" viewBox="0 0 481 481"><defs><style>.cls-1{fill:#868686;}.cls-1,.cls-3{stroke:#000;stroke-miterlimit:10;}.cls-2{fill:#fff;}</style></defs><g id="Capa_2" data-name="Capa 2"><rect class="cls-1" x="0.5" y="0.5" width="480" height="480"/></g><g id="Capa_1" data-name="Capa 1"><circle class="cls-2" cx="241" cy="131" r="83.5"/><path d="M241,51a79,79,0,1,1-79,79,79.09,79.09,0,0,1,79-79m0-9a88,88,0,1,0,88,88,88,88,0,0,0-88-88Z" transform="translate(0 1)"/><path class="cls-2" d="M119.83,363.25c-13.94,0-39.56-25.35-58.28-67.76C41,248.91,41.07,210.08,54,204.36a9.79,9.79,0,0,1,4-.8c6.91,0,16.12,5.8,25.94,16.32,11.79,12.64,23.27,30.91,32.34,51.45,9.57,21.66,15.39,43.36,16.4,61.1.93,16.19-2.3,27.13-8.86,30a8.22,8.22,0,0,1-1.23.43A10.67,10.67,0,0,1,119.83,363.25Z" transform="translate(0 1)"/><path d="M58,199.56v8c5.62,0,14.23,5.63,23,15.05,11.5,12.32,22.72,30.19,31.61,50.33,9.38,21.24,15.08,42.45,16.07,59.72.95,16.76-2.9,24.55-6.49,26.14a4.32,4.32,0,0,1-.6.21l-.06,0h-.06a6.16,6.16,0,0,1-1.65.21c-6.06,0-15.33-6.36-24.79-17C84.18,330,73.58,312.84,65.21,293.88c-9.38-21.24-15.08-42.45-16.06-59.72-1-16.76,2.9-24.56,6.48-26.14a5.76,5.76,0,0,1,2.37-.46v-8m0,0a13.72,13.72,0,0,0-5.6,1.14c-17.13,7.57-14.68,50.73,5.49,96.41,18.12,41,44.36,70.14,61.94,70.14a14,14,0,0,0,3.74-.49,12.5,12.5,0,0,0,1.87-.64c17.13-7.57,14.67-50.73-5.5-96.41-9.58-21.71-21.43-40.08-33.08-52.56C76.48,206,66.28,199.56,58,199.56Z" transform="translate(0 1)"/><path class="cls-2" d="M119.92,475.39A200.8,200.8,0,0,1,111.43,447c20.13-4.11,34.9-43.38,34.9-94.55,0-22.44-3-43.92-8.57-60.82,16-24.34,36.74-42.33,60.23-52.31,6.07,9,25,13.72,43.51,13.72,17.23,0,36.38-4.12,43.06-13.05,22.93,10.15,43.17,28,58.84,51.87C338,308.61,335,329.87,335,352c0,50.95,14.64,90.11,34.64,94.5a200.88,200.88,0,0,1-8.62,28.89Z" transform="translate(0 1)"/><path d="M196.67,244.78c8.67,8.71,27,12.72,44.83,12.72,17.11,0,35.08-3.82,44.1-12.12,20.4,9.73,38.51,25.87,52.86,47.15-5.13,16.88-7.93,37.79-7.93,59.47,0,25.2,3.73,49,10.5,67.09,7.05,18.79,15.64,27.13,23.33,30.43a196.21,196.21,0,0,1-6.43,21.37H123.05A195.39,195.39,0,0,1,116.76,450c7.76-3.22,16.45-11.55,23.57-30.53,6.77-18.06,10.5-41.89,10.5-67.09,0-22-2.87-43.12-8.13-60.12,14.65-21.64,33.14-37.9,54-47.51m3.84-11.37C173.56,243.66,150.07,264,132.8,291c5.61,16.12,9,37.71,9,61.44,0,49.93-15.18,90.41-33.91,90.41a11.81,11.81,0,0,1-2-.16,204.65,204.65,0,0,0,10.9,37.23H364.12a204.17,204.17,0,0,0,11-37.59,13.54,13.54,0,0,1-1.68.11c-18.73,0-33.91-40.48-33.91-90.41,0-23.41,3.33-44.75,8.82-60.81-16.88-26.44-39.73-46.54-66-57-1.56,8-19.27,14.35-40.89,14.35-22.28,0-40.41-6.72-41-15.09Z" transform="translate(0 1)"/><path class="cls-2" d="M362.64,369.17a10.29,10.29,0,0,1-2.39-.28,9.68,9.68,0,0,1-1.11-.35c-6.68-2.6-10.4-13.38-10.21-29.6.21-17.76,5.05-39.7,13.63-61.78,8-20.64,18.53-39.23,29.58-52.35,9.62-11.43,19.13-18,26.11-18a9.62,9.62,0,0,1,3.5.63c13.19,5.13,15,43.92-3.42,91.38C401.21,342.86,376.57,369.17,362.64,369.17Z" transform="translate(0 1)"/><path d="M418.25,210.83h0a5.58,5.58,0,0,1,2.05.36c3.66,1.42,7.86,9,7.66,25.82-.21,17.3-4.95,38.74-13.36,60.38C407,317,397,334.8,386.58,347.54c-13.41,16.36-21.72,17.63-23.94,17.63a5.92,5.92,0,0,1-1.4-.16,5.86,5.86,0,0,1-.66-.2c-3.65-1.42-7.85-9-7.65-25.82.21-17.3,4.95-38.74,13.36-60.38,7.87-20.24,18.14-38.43,28.92-51.23,8.72-10.36,17.33-16.55,23-16.55m0-8c-8.53,0-18.88,7.18-29.16,19.4-10.94,13-21.77,31.66-30.26,53.48-18.09,46.54-18.6,89.77-1.14,96.56a14.16,14.16,0,0,0,1.6.5,13.78,13.78,0,0,0,3.35.4c17.59,0,42.95-30.51,59.42-72.88,18.09-46.54,18.6-89.77,1.14-96.56a13.54,13.54,0,0,0-4.95-.9Z" transform="translate(0 1)"/><path class="cls-2" d="M207.5,106.5c1.38-12.3,9.69-22.53,21-26,12.56-3.85,24.46,2,31,9,12.53,13.45,9.92,36.12,0,46-8.38,8.35-19.24,4.83-24,13-4.31,7.4.14,17.95,4,25" transform="translate(0 1)"/><path d="M200.8,105.75A38.31,38.31,0,0,1,204.17,93a37.53,37.53,0,0,1,7.67-10.89A35.5,35.5,0,0,1,236.42,71.9a36.37,36.37,0,0,1,13.27,2.43,39.26,39.26,0,0,1,6,2.85A42.42,42.42,0,0,1,261.08,81a33.19,33.19,0,0,1,4.73,4.75l1.06,1.32a11,11,0,0,1,1,1.35l1.81,2.85a40.88,40.88,0,0,1,4.42,12.36,43.29,43.29,0,0,1,.45,12.79,44,44,0,0,1-3.17,12.36,32.67,32.67,0,0,1-7.44,11.1,28.62,28.62,0,0,1-11.87,6.62c-2,.59-3.88,1-5.49,1.38a23,23,0,0,0-4,1.26,5.29,5.29,0,0,0-2.21,1.71,8.56,8.56,0,0,0-1.43,2.85,26.36,26.36,0,0,0-.49,8.82c.23,3.4.82,7,1.07,11a25.67,25.67,0,0,1-4.3-4,26.5,26.5,0,0,1-3.38-4.86A21.73,21.73,0,0,1,229,152a16.45,16.45,0,0,1,2.54-7.16,16.16,16.16,0,0,1,5.79-5.46,32,32,0,0,1,6.13-2.54c1.87-.6,3.49-1.07,4.95-1.62a16.24,16.24,0,0,0,6.72-4.21,21.46,21.46,0,0,0,4.11-7.12,31.87,31.87,0,0,0,1.75-8.71,29.57,29.57,0,0,0-.66-8.83,28.46,28.46,0,0,0-3.06-7.92c-.4-.57-.78-1.14-1.16-1.71a4.51,4.51,0,0,0-.63-.81l-.67-.78a18,18,0,0,0-3-2.86c-4.44-3.5-10-5.71-15.29-5.61a21.66,21.66,0,0,0-14.62,5.92,25.4,25.4,0,0,0-7.7,14.63Z" transform="translate(0 1)"/><circle class="cls-3" cx="240" cy="183" r="4.5"/></g></svg>